<?xml version="1.0" encoding="utf-8"?>
<!-- Generator: Adobe Illustrator 24.3.0, SVG Export Plug-In . SVG Version: 6.00 Build 0)  -->
<svg version="1.1" id="Capa_1" xmlns="http://www.w3.org/2000/svg" xmlns:xlink="http://www.w3.org/1999/xlink" x="0px" y="0px"
	 viewBox="0 0 85 85" style="enable-background:new 0 0 85 85;" xml:space="preserve">
<style type="text/css">
	<!-- .st0{fill:#7D5E98;}
	.st1{fill:#FFFFFF;} -->
</style>
<circle style="fill:#6F4CA0" cx="42.5" cy="42.5" r="41.1"/>
<g transform="translate(-43 -32.7)">
	<path style="fill:#FFFFFF;" d="M101.9,72.2h-0.7v-5.9c0-9-7.3-16.3-16.3-16.3s-16.3,7.3-16.3,16.3v5.9h-0.7c-2.6,0-4.7,2.1-4.7,4.7v4.9
		c0,2.6,2.1,4.7,4.7,4.7h4.3c0.6,0,1.1-0.5,1.1-1.1V73.2c0-0.6-0.5-1.1-1.1-1.1h-1.3v-5.9c0-7.8,6.3-14.1,14.1-14.1S99,58.5,99,66.3
		l0,0v5.9h-1.3c-0.6,0-1.1,0.5-1.1,1.1v12.2c0,0.6,0.5,1.1,1.1,1.1H99v1.4c0,1.8-1.5,3.3-3.3,3.3h-2.1c-0.1,0-0.2,0-0.3,0
		c-0.5-1.6-2-2.8-3.7-2.8h-5.3c-2.1,0-3.8,1.7-3.8,3.8c0,2.1,1.7,3.8,3.8,3.8h5.3c1.7,0,3.2-1.1,3.7-2.8c0.1,0,0.2,0,0.3,0h2.1
		c3,0,5.5-2.5,5.5-5.5v0v-1.4h0.7c2.6,0,4.7-2.1,4.7-4.7v-4.9C106.7,74.3,104.6,72.2,101.9,72.2C101.9,72.2,101.9,72.2,101.9,72.2
		L101.9,72.2z M71.1,84.3h-3.2c-1.4,0-2.6-1.1-2.6-2.6v-4.9c0-1.4,1.1-2.6,2.6-2.6h3.2L71.1,84.3z M89.6,94h-5.4
		c-0.9,0-1.6-0.8-1.6-1.7c0-0.9,0.7-1.6,1.6-1.6h5.3c0.9,0,1.6,0.8,1.6,1.7C91.2,93.2,90.5,93.9,89.6,94L89.6,94z M104.5,81.8
		c0,1.4-1.1,2.6-2.6,2.6h-3.2v-10h3.2c1.4,0,2.6,1.1,2.6,2.6L104.5,81.8z"/>
</g>
</svg>
