<?xml version="1.0" encoding="utf-8"?>
<!-- Generator: Adobe Illustrator 24.3.0, SVG Export Plug-In . SVG Version: 6.00 Build 0)  -->
<svg version="1.1" id="Capa_1" xmlns="http://www.w3.org/2000/svg" xmlns:xlink="http://www.w3.org/1999/xlink" x="0px" y="0px"
	 viewBox="0 0 75.4 62.2" style="enable-background:new 0 0 75.4 62.2;" xml:space="preserve">
<style type="text/css">
	.st0{fill:none;stroke:#623E91;stroke-width:1.8855;stroke-linecap:round;stroke-linejoin:round;stroke-miterlimit:10;}
	.st1{fill:none;stroke:#623E91;stroke-width:1.4141;stroke-linecap:round;stroke-linejoin:round;stroke-miterlimit:10;}
	.st2{fill:#623E91;}
	.st3{fill:none;stroke:#623E91;stroke-width:2.2;stroke-linecap:round;stroke-linejoin:round;stroke-miterlimit:10;}
	.st4{fill:none;}
	.st5{fill-rule:evenodd;clip-rule:evenodd;fill:#623E91;}
</style>
<g>
	<circle class="st3" cx="37.7" cy="31.1" r="19.3"/>
	<g>
		<path class="st3" d="M7.7,30c0-16,13-28.9,28.9-28.9"/>
		<polyline class="st3" points="14.3,25.2 7.7,31.1 1.1,25.2 		"/>
	</g>
	<g>
		<path class="st3" d="M67.7,32.2c0,16-13,28.9-28.9,28.9"/>
		<polyline class="st3" points="61.1,38.1 67.7,32.2 74.3,38.1 		"/>
	</g>
	<g>
		<path class="st2" d="M37.9,16.8c0.5,0,1,0.5,1,1v1c2.1,0.2,3.7,0.9,5.4,2c0.3,0.3,0.6,0.6,0.6,1c0,0.7-0.5,1.1-1.2,1.1
			c-0.2,0-0.4,0-0.7-0.2c-1.4-1-2.8-1.6-4.2-1.8v7.8c4.8,1.1,6.9,3,6.9,6.2c0,3.4-2.8,5.7-6.8,6v2.3c0,0.5-0.5,1-1,1
			c-0.5,0-1-0.5-1-1v-2.3c-2.6-0.2-4.8-1.2-6.9-2.8c-0.3-0.3-0.5-0.6-0.5-1c0-0.6,0.5-1.1,1.2-1.1c0.3,0,0.6,0.1,0.7,0.3
			c1.7,1.4,3.4,2.3,5.6,2.6v-8c-4.7-1.1-6.8-2.9-6.8-6.2c0-3.3,2.8-5.7,6.7-5.9v-1C36.9,17.2,37.4,16.8,37.9,16.8z M37,28.4v-7.5
			c-2.7,0.1-4.3,1.7-4.3,3.6C32.7,26.3,33.6,27.5,37,28.4z M38.9,31.2v7.6c2.7-0.2,4.4-1.6,4.4-3.7C43.3,33.3,42.3,32.1,38.9,31.2z"
			/>
	</g>
</g>
</svg>
