<?xml version="1.0" encoding="utf-8"?>
<!-- Generator: Adobe Illustrator 24.3.0, SVG Export Plug-In . SVG Version: 6.00 Build 0)  -->
<svg version="1.1" id="Capa_1" xmlns="http://www.w3.org/2000/svg" xmlns:xlink="http://www.w3.org/1999/xlink" x="0px" y="0px"
	 viewBox="0 0 85 85" style="enable-background:new 0 0 85 85;" xml:space="preserve">
<style type="text/css">
	<!-- .st0{fill:#6F4CA0;} -->
</style>
<path style="fill:#6F4CA0" d="M84.3,42.5c0,23.1-18.7,41.8-41.8,41.8S0.7,65.6,0.7,42.5S19.4,0.7,42.5,0.7S84.3,19.4,84.3,42.5z M80.7,42.5
	c0-21.1-17.1-38.2-38.2-38.2C21.4,4.3,4.3,21.4,4.3,42.5s17.1,38.2,38.2,38.2S80.7,63.6,80.7,42.5C80.7,42.5,80.7,42.5,80.7,42.5z
	 M42.6,66.4c-2.2,0-4-1.8-4-4s1.8-4,4-4s4,1.8,4,4C46.6,64.6,44.8,66.4,42.6,66.4L42.6,66.4z M54.5,30.6c0,5.8-4.2,10.8-10,11.8v10
	h-4V38.5h2c4.4,0,8-3.6,8-8c0-4.4-3.6-8-8-8c-4.4,0-8,3.6-8,8v2h-4v-2c0-6.6,5.3-11.9,11.9-11.9S54.5,24,54.5,30.6L54.5,30.6z"/>
</svg>
