<?xml version="1.0" encoding="utf-8"?>
<!-- Generator: Adobe Illustrator 24.3.0, SVG Export Plug-In . SVG Version: 6.00 Build 0)  -->
<svg version="1.1" id="Capa_1" xmlns="http://www.w3.org/2000/svg" xmlns:xlink="http://www.w3.org/1999/xlink" x="0px" y="0px"
	 viewBox="0 0 59.7 59.5" style="enable-background:new 0 0 59.7 59.5;" xml:space="preserve">
<style type="text/css">
	.st0{fill:none;stroke:#623E91;stroke-width:1.8855;stroke-linecap:round;stroke-linejoin:round;stroke-miterlimit:10;}
	.st1{fill:none;stroke:#623E91;stroke-width:1.4141;stroke-linecap:round;stroke-linejoin:round;stroke-miterlimit:10;}
	.st2{fill:#623E91;}
	.st3{fill:none;stroke:#623E91;stroke-width:2.2;stroke-linecap:round;stroke-linejoin:round;stroke-miterlimit:10;}
	.st4{fill:none;}
	.st5{fill-rule:evenodd;clip-rule:evenodd;fill:#623E91;}
</style>
<g>
	<g id="JvI3dl_20_">
		<g>
			<path class="st2" d="M59.2,24.6c-0.6-0.7-1.3-1.5-1.9-2.2c-1-1.1-1.9-2.3-2.9-3.4c-0.5-0.6-1-1.3-0.9-2.4c0-0.4,0-0.9,0-1.3
				c0-0.2,0-0.4,0-0.6c0-1.8-0.6-2.4-2.4-2.4H37.9l0.1-0.3c1.1-4.7,0.1-8.1-3.1-10.3c-2.9-2.1-6.8-2.1-9.7-0.2
				c-3.6,2.5-4.8,6-3.5,10.5l0.1,0.3l-4.6,0c-1.2,0-2.4,0-3.5,0c-1.8,0-3.5,0-5.3,0c-1.3,0-2.1,0.7-2.1,2c0,0.3,0,0.7,0,1
				c0,0.7,0,1.4,0,2c0,0.4-0.2,0.8-0.4,1.1c-0.8,1-1.7,2-2.5,2.9c-1,1.1-1.9,2.2-2.8,3.3C0.2,25,0,25.4,0,25.7C0,28,0,30.3,0,32.2
				c0,1.5,0.6,3,1.6,4.2c0.3,0.3,0.4,0.8,0.4,1.2c0,5.4,0,10.9,0,16.3l0,3.2c0,0.9,0.2,1.4,0.5,1.8s0.9,0.5,1.8,0.5h50.9
				c1.6,0,2.3-0.6,2.3-2.3l0-3.4c0-5.4,0-10.8,0-16.1c0-0.2,0-0.7,0.3-1c1.2-1.4,1.8-3,1.8-4.9c0-1.8,0-3.7,0-5.8
				C59.7,25.4,59.5,25,59.2,24.6z M55.8,23.1l1.4,1.6l-3.8,0c-1.6,0-3.2,0-4.9,0c0,0,0,0,0,0c-0.5,0-0.8-0.2-1-0.6
				c-0.5-0.9-0.9-1.9-1.4-2.8L45.4,20c-0.1-0.1-0.1-0.2-0.2-0.4L44.9,19h3.2c1.2,0,2.3,0,3.5,0c0.3,0,0.7,0.1,0.9,0.3
				C53.6,20.6,54.7,21.8,55.8,23.1z M36.5,28.9c0-0.5,0-1.1,0-1.6v-1h9.8l0.1,0.1c0.1,0.1,0.1,0.2,0.1,0.3c0,0.6,0,1.2,0,1.8
				c0,1.4,0,2.9-0.1,4.3c-0.2,2.5-2.3,4.4-4.9,4.4c0,0-0.1,0-0.1,0c-2.6-0.1-4.7-2.1-4.8-4.6C36.5,31.3,36.5,30.1,36.5,28.9z
				 M36.3,24.1c-0.2-1.3-0.5-2.6-0.7-3.8l-0.1-0.7c0-0.1,0-0.2,0-0.2c0,0,0-0.1,0-0.1l0-0.2l4.5,0c0.8,0,1.6,0,2.4,0
				c0.2,0,0.6,0.1,0.8,0.4c0.7,1.3,1.4,2.7,2.1,4l0.4,0.7c0,0.1,0,0.2,0,0.2l0,0.3l-4.7,0c-0.4,0-0.8,0-1.2,0c-0.9,0-1.8,0-2.8,0
				C36.8,24.7,36.3,24.4,36.3,24.1z M50.1,13.8l1.1,0c0.1,0,0.2,0,0.2,0l0.3,0v3.5H32.2l0.6-0.5c0.1-0.1,0.1-0.1,0.2-0.1
				c1.3-0.5,2.4-1.3,3.4-2.5c0.2-0.2,0.5-0.4,0.8-0.4C41.6,13.8,45.9,13.8,50.1,13.8z M34.8,26.3l0,0.4c0,0.1,0,0.2,0,0.4l0,1.1
				c0,1.3,0,2.6,0,3.9c0,2.7-2.1,4.9-4.8,5c-0.1,0-0.1,0-0.2,0c-2.7,0-4.8-2-5-4.7c-0.1-1.4-0.1-2.7,0-4.1c0-0.6,0-1.2,0-1.8v-0.2
				H34.8z M25,24.6l0.2-1.2c0.2-1.3,0.4-2.6,0.7-3.9c0-0.2,0.4-0.5,0.6-0.5c1.9,0,3.8,0,5.8,0h1.5l1,5.6H25z M29.9,1.6
				C29.9,1.6,29.9,1.6,29.9,1.6c1.9,0,3.7,0.7,5,2.1c1.3,1.3,2.1,3.1,2.1,5c0,3.9-3.2,7-7.1,7c0,0,0,0,0,0c-1.9,0-3.7-0.7-5-2.1
				c-1.3-1.3-2.1-3.1-2-5C22.8,4.7,25.9,1.6,29.9,1.6z M7.9,13.8l4.3,0c3.3,0,6.7,0,10,0c0,0,0,0,0,0c0.5,0,0.9,0.2,1.2,0.5
				c0.8,1,1.9,1.7,3.1,2.3c0.1,0.1,0.3,0.1,0.4,0.2l0.1,0.1l0,0.4l-0.2,0.1H7.9V13.8z M13.8,24.6l0.2-0.3c0.2-0.4,0.4-0.7,0.6-1.1
				c0.5-0.8,0.9-1.6,1.2-2.5c0.5-1.3,1.3-1.8,2.8-1.7c1.2,0.1,2.5,0.1,3.8,0.1c0.6,0,1.1,0,1.7,0h0.3l-0.9,5.6H13.8z M23.2,26.3v0.2
				c0,2.1,0,4.3,0,6.4c0,0.1,0,0.1,0,0.2c-0.5,2.4-2.5,4-5,4c-0.2,0-0.3,0-0.5,0c-2.4-0.2-4.3-2.3-4.4-4.8c0-1.3,0-2.6,0-3.8
				c0-0.5,0-1.1,0-1.6c0-0.1,0-0.1,0-0.2l0-0.3H23.2z M3.9,23.1c1.1-1.3,2.1-2.5,3.2-3.7C7.3,19.2,7.5,19,7.8,19c1.8,0,3.5,0,5.4,0
				h1.7l-0.2,0.3c-0.2,0.4-0.4,0.8-0.6,1.1c-0.4,0.8-0.9,1.6-1.2,2.4c-0.5,1.3-1.3,1.9-2.6,1.9c-0.1,0-0.3,0-0.4,0
				c-1.4-0.1-2.8-0.1-4.2-0.1c-0.6,0-1.2,0-1.8,0H2.6L3.9,23.1z M1.6,32.5c-0.1-1.4,0-2.7,0-4.1c0-0.6,0-1.2,0-1.9v-0.2h9.8l0.1,0.1
				c0.1,0.1,0.1,0.2,0.1,0.3c0,0.6,0,1.2,0,1.8c0,1.4,0,2.9-0.1,4.3c-0.2,2.5-2.3,4.4-4.9,4.4c0,0-0.1,0-0.1,0
				C3.9,37.1,1.8,35,1.6,32.5z M28,57.8H15.1V42.9H28V57.8z M56,57.8H29.6l0-15.3c0-1-0.2-1.2-1.2-1.2c-4.6,0-9.2,0-13.7,0
				c-1,0-1.2,0.2-1.2,1.3l0,15.3H3.7V38.2L4,38.3c3.4,1.1,6.1,0.2,8.2-2.6l0.2-0.3l0.2,0.3c1.3,1.9,3.4,3,5.7,3c0,0,0,0,0,0
				c2.2,0,4.3-1.1,5.6-3l0.2-0.3l0.2,0.3c1.3,1.9,3.4,3,5.6,3c0,0,0,0,0,0c2.2,0,4.3-1.1,5.6-3.1l0.2-0.3l0.2,0.3
				c1.5,2,3.3,3,5.6,3.1c0,0,0,0,0,0c2.3,0,4.1-1,5.6-3l0.2-0.3l0.2,0.3c2.1,2.8,4.8,3.7,8.2,2.6l0.3-0.1V57.8z M57.9,33.1
				c-0.3,2.4-2.3,4.1-4.9,4.1c-0.1,0-0.2,0-0.3,0c-2.4-0.1-4.5-2.1-4.6-4.4c-0.1-1.4-0.1-2.8,0-4.2c0-0.6,0-1.3,0-1.9v-0.2H58v0.2
				c0,0.7,0,1.3,0,2C58.1,30,58.1,31.6,57.9,33.1z"/>
			<path class="st2" d="M36.3,51.2c0,0.8,0.3,1,1,1c2.3,0,4.5,0,6.8,0c0.8,0,1-0.2,1-1c0-3,0-5.9,0-8.9c0-0.8-0.3-1-1-1
				c-1.1,0-2.2,0-3.3,0c-1.2,0-2.3,0-3.5,0c-0.8,0-1,0.3-1,1c0,1,0,2.1,0,3.1l0,1.3l0,1.3C36.3,49.1,36.3,50.1,36.3,51.2z
				 M37.9,42.9h5.6v7.6h-5.6V42.9z"/>
			<g>
				<path class="st2" d="M30.9,7.6c0.6,0,1.2,0,1.8,0c0.7,0,1.2,0.4,1.2,1c0,0.6-0.5,1-1.2,1.1c-0.6,0-1.1,0-1.7,0
					c0,0.6,0,1.2,0,1.8c0,0.7-0.4,1.2-1,1.2c-0.6,0-1-0.4-1-1.1c0-0.6,0-1.2,0-1.8c-0.6,0-1.2,0-1.7,0c-0.8,0-1.2-0.4-1.2-1
					c0-0.6,0.5-1,1.2-1c0.6,0,1.1,0,1.7,0c0-0.7,0-1.2,0-1.8c0-0.7,0.4-1.1,1.1-1.1c0.6,0,1,0.4,1,1.1C30.9,6.4,30.9,7,30.9,7.6z"/>
			</g>
		</g>
	</g>
</g>
</svg>
