<?xml version="1.0" encoding="utf-8"?>
<!-- Generator: Adobe Illustrator 24.3.0, SVG Export Plug-In . SVG Version: 6.00 Build 0)  -->
<svg version="1.1" id="Capa_1" xmlns="http://www.w3.org/2000/svg" xmlns:xlink="http://www.w3.org/1999/xlink" x="0px" y="0px"
	 viewBox="0 0 50.7 60.7" style="enable-background:new 0 0 50.7 60.7;" xml:space="preserve">
<style type="text/css">
	.st0{fill:none;stroke:#623E91;stroke-width:1.8855;stroke-linecap:round;stroke-linejoin:round;stroke-miterlimit:10;}
	.st1{fill:none;stroke:#623E91;stroke-width:1.4141;stroke-linecap:round;stroke-linejoin:round;stroke-miterlimit:10;}
	.st2{fill:#623E91;}
	.st3{fill:none;stroke:#623E91;stroke-width:2.2;stroke-linecap:round;stroke-linejoin:round;stroke-miterlimit:10;}
	.st4{fill:none;}
	.st5{fill-rule:evenodd;clip-rule:evenodd;fill:#623E91;}
</style>
<g>
<path style=" stroke:none;fill-rule:nonzero;fill:rgb(34.893799%,23.757935%,62.535095%);fill-opacity:1;" d="M 17.132812 15.832031 C 21.503906 15.832031 25.875 15.832031 30.246094 15.832031 L 35.785156 15.832031 L 35.785156 18.871094 C 35.78125 20.660156 35.78125 22.453125 35.785156 24.238281 C 35.789062 26.136719 37.214844 27.566406 39.109375 27.570312 C 40.886719 27.578125 42.664062 27.574219 44.441406 27.574219 L 47.5 27.574219 L 47.5 35.390625 C 47.5 42.503906 47.5 49.617188 47.496094 56.730469 C 47.496094 58.886719 46.304688 60.078125 44.140625 60.078125 C 39.632812 60.078125 35.125 60.078125 30.617188 60.078125 C 26.132812 60.078125 21.648438 60.078125 17.164062 60.074219 C 15.585938 60.074219 14.453125 59.308594 14.054688 57.976562 C 13.953125 57.636719 13.902344 57.238281 13.902344 56.796875 C 13.894531 44.226562 13.894531 31.65625 13.898438 19.085938 C 13.898438 17.082031 15.136719 15.832031 17.132812 15.832031 M 37.25 16.144531 L 37.488281 15.941406 L 37.558594 15.992188 C 37.667969 16.070312 37.785156 16.140625 37.902344 16.210938 C 38.152344 16.371094 38.410156 16.53125 38.625 16.742188 C 41.378906 19.472656 44.054688 22.148438 46.582031 24.699219 C 46.792969 24.914062 46.953125 25.167969 47.140625 25.464844 C 47.230469 25.605469 47.324219 25.757812 47.433594 25.917969 L 47.554688 26.097656 L 39.410156 26.097656 C 37.957031 26.09375 37.25 25.394531 37.25 23.960938 Z M 12.410156 57.015625 C 12.414062 59.59375 14.367188 61.539062 16.953125 61.539062 C 26.121094 61.542969 35.289062 61.542969 44.460938 61.539062 C 47.035156 61.539062 48.984375 59.609375 48.984375 57.050781 C 48.992188 47.132812 48.988281 37.101562 48.984375 26.84375 C 48.984375 25.628906 48.582031 24.605469 47.792969 23.808594 C 44.785156 20.769531 42.070312 18.054688 39.488281 15.507812 C 38.71875 14.75 37.730469 14.363281 36.542969 14.363281 C 29.984375 14.367188 23.421875 14.367188 16.863281 14.367188 C 16.640625 14.367188 16.386719 14.371094 16.148438 14.414062 C 13.878906 14.84375 12.410156 16.613281 12.40625 18.925781 C 12.40625 23.308594 12.40625 27.691406 12.40625 32.074219 L 12.40625 43.644531 C 12.40625 48.101562 12.402344 52.558594 12.410156 57.015625 "/>
<path style=" stroke:none;fill-rule:nonzero;fill:rgb(34.893799%,23.757935%,62.535095%);fill-opacity:1;" d="M 22.929688 33.300781 L 22.78125 33.351562 L 22.78125 29.285156 L 22.914062 29.3125 C 23.65625 29.445312 24.253906 30.21875 24.339844 31.148438 C 24.421875 32.054688 23.816406 32.980469 22.929688 33.300781 M 21.238281 27.378906 L 21.070312 27.28125 C 20.3125 26.859375 19.921875 26.265625 19.871094 25.464844 C 19.8125 24.527344 20.203125 23.824219 21.070312 23.3125 L 21.238281 23.210938 Z M 25.785156 31.070312 C 25.683594 29.484375 24.820312 28.339844 23.28125 27.757812 L 23.238281 27.742188 C 22.992188 27.652344 22.746094 27.5625 22.753906 27.136719 C 22.773438 26.246094 22.769531 25.363281 22.765625 24.429688 C 22.765625 24.074219 22.765625 23.710938 22.765625 23.339844 L 22.765625 23.164062 L 22.925781 23.234375 C 23.800781 23.628906 24.253906 24.285156 24.355469 25.304688 C 24.398438 25.769531 24.722656 26.074219 25.128906 26.042969 C 25.550781 26.015625 25.824219 25.6875 25.820312 25.214844 C 25.808594 24.210938 25.460938 23.371094 24.8125 22.78125 C 24.433594 22.4375 23.980469 22.152344 23.503906 21.855469 C 23.28125 21.714844 23.046875 21.570312 22.8125 21.410156 L 22.761719 21.378906 L 22.761719 20.972656 C 22.765625 20.65625 22.769531 20.277344 22.757812 19.898438 C 22.746094 19.425781 22.464844 19.128906 22.03125 19.128906 L 22.027344 19.128906 C 21.597656 19.132812 21.308594 19.433594 21.292969 19.902344 C 21.28125 20.300781 21.273438 20.730469 21.296875 21.160156 C 21.3125 21.5 21.195312 21.671875 20.855469 21.796875 C 19.335938 22.367188 18.390625 23.707031 18.386719 25.292969 C 18.382812 26.886719 19.324219 28.226562 20.839844 28.796875 C 21.226562 28.941406 21.300781 29.152344 21.296875 29.472656 C 21.285156 30.175781 21.289062 30.875 21.289062 31.574219 C 21.289062 31.984375 21.289062 32.394531 21.289062 32.804688 C 21.289062 32.894531 21.277344 32.980469 21.261719 33.097656 C 21.25 33.160156 21.242188 33.230469 21.230469 33.320312 L 21.207031 33.53125 L 21.046875 33.394531 C 20.945312 33.304688 20.839844 33.230469 20.746094 33.160156 C 20.535156 33.003906 20.351562 32.871094 20.25 32.679688 C 20.003906 32.207031 19.84375 31.6875 19.710938 31.195312 C 19.605469 30.800781 19.40625 30.605469 19.070312 30.5625 C 19.027344 30.554688 18.980469 30.554688 18.941406 30.554688 C 18.648438 30.554688 18.429688 30.695312 18.335938 30.957031 C 18.25 31.1875 18.222656 31.476562 18.261719 31.71875 C 18.503906 33.292969 19.382812 34.34375 20.867188 34.847656 C 21.191406 34.957031 21.304688 35.117188 21.292969 35.4375 C 21.28125 35.871094 21.273438 36.339844 21.300781 36.800781 C 21.324219 37.167969 21.652344 37.464844 22.03125 37.464844 L 22.039062 37.464844 C 22.429688 37.460938 22.722656 37.175781 22.753906 36.773438 C 22.773438 36.5625 22.785156 36.390625 22.761719 36.21875 C 22.675781 35.550781 22.714844 34.765625 23.769531 34.621094 C 25.207031 33.804688 25.882812 32.613281 25.785156 31.070312 "/>
<path style=" stroke:none;fill-rule:nonzero;fill:rgb(34.893799%,23.757935%,62.535095%);fill-opacity:1;" d="M 43.421875 46.824219 C 43.222656 46.785156 43.003906 46.785156 42.8125 46.785156 C 34.574219 46.78125 26.339844 46.785156 18.105469 46.785156 C 17.90625 46.785156 17.71875 46.785156 17.546875 46.8125 C 17.136719 46.882812 16.863281 47.195312 16.878906 47.566406 C 16.898438 47.9375 17.199219 48.242188 17.597656 48.292969 C 17.707031 48.304688 17.816406 48.300781 17.933594 48.300781 L 30.441406 48.300781 C 34.582031 48.300781 38.730469 48.300781 42.871094 48.300781 C 42.960938 48.300781 43.046875 48.304688 43.132812 48.304688 C 43.234375 48.304688 43.332031 48.296875 43.421875 48.273438 C 43.84375 48.164062 44.039062 47.917969 44.023438 47.515625 C 44.011719 47.125 43.8125 46.898438 43.421875 46.824219 "/>
<path style=" stroke:none;fill-rule:nonzero;fill:rgb(34.893799%,23.757935%,62.535095%);fill-opacity:1;" d="M 43.023438 54.054688 L 17.929688 54.054688 C 17.886719 54.054688 17.84375 54.054688 17.804688 54.054688 C 17.714844 54.054688 17.628906 54.054688 17.546875 54.070312 C 17.148438 54.132812 16.847656 54.480469 16.882812 54.828125 C 16.925781 55.25 17.148438 55.488281 17.546875 55.535156 C 17.734375 55.558594 17.929688 55.558594 18.113281 55.558594 C 26.347656 55.5625 34.582031 55.5625 42.816406 55.558594 C 43.019531 55.558594 43.230469 55.558594 43.429688 55.527344 C 43.828125 55.453125 44.054688 55.152344 44.023438 54.738281 C 43.988281 54.28125 43.660156 54.054688 43.023438 54.054688 "/>
<path style=" stroke:none;fill-rule:nonzero;fill:rgb(34.893799%,23.757935%,62.535095%);fill-opacity:1;" d="M 43.179688 39.539062 L 43.175781 39.539062 C 41.003906 39.542969 38.828125 39.542969 36.652344 39.542969 L 33.460938 39.542969 C 31.042969 39.542969 28.628906 39.542969 26.210938 39.542969 C 25.789062 39.542969 25.28125 39.667969 25.269531 40.261719 C 25.265625 40.46875 25.328125 40.636719 25.449219 40.761719 C 25.613281 40.925781 25.882812 41.011719 26.238281 41.011719 C 27.519531 41.015625 28.800781 41.015625 30.082031 41.011719 L 31.363281 41.011719 L 33.671875 41.015625 C 36.761719 41.015625 39.953125 41.015625 43.089844 41 C 43.347656 41 43.699219 40.898438 43.835938 40.730469 C 43.976562 40.558594 44.007812 40.195312 43.949219 39.960938 C 43.875 39.675781 43.625 39.539062 43.179688 39.539062 "/>
<path style=" stroke:none;fill-rule:nonzero;fill:rgb(34.893799%,23.757935%,62.535095%);fill-opacity:1;" d="M 43.070312 32.253906 C 38.773438 32.253906 34.476562 32.253906 30.175781 32.253906 L 30.101562 32.253906 C 30.078125 32.253906 30.054688 32.253906 30.03125 32.253906 C 29.960938 32.253906 29.894531 32.253906 29.828125 32.265625 C 29.59375 32.3125 29.394531 32.453125 29.285156 32.65625 C 29.179688 32.847656 29.171875 33.074219 29.253906 33.277344 C 29.390625 33.605469 29.644531 33.742188 30.132812 33.742188 L 30.144531 33.742188 C 31.738281 33.734375 33.335938 33.734375 34.933594 33.738281 L 39.09375 33.738281 C 40.441406 33.738281 41.792969 33.738281 43.144531 33.734375 C 43.476562 33.734375 43.746094 33.628906 43.894531 33.441406 C 44.023438 33.285156 44.066406 33.070312 44.015625 32.828125 C 43.9375 32.449219 43.617188 32.253906 43.070312 32.253906 "/>
</g>
</svg>
