<?xml version="1.0" encoding="utf-8"?>
<!-- Generator: Adobe Illustrator 24.3.0, SVG Export Plug-In . SVG Version: 6.00 Build 0)  -->
<svg version="1.1" id="Capa_1" xmlns="http://www.w3.org/2000/svg" xmlns:xlink="http://www.w3.org/1999/xlink" x="0px" y="0px"
	 viewBox="0 0 45.3 59.7" style="enable-background:new 0 0 45.3 59.7;" xml:space="preserve">
<style type="text/css">
	.st0{fill:none;stroke:#623E91;stroke-width:1.8855;stroke-linecap:round;stroke-linejoin:round;stroke-miterlimit:10;}
	.st1{fill:none;stroke:#623E91;stroke-width:1.4141;stroke-linecap:round;stroke-linejoin:round;stroke-miterlimit:10;}
	.st2{fill:#623E91;}
	.st3{fill:none;stroke:#623E91;stroke-width:2.2;stroke-linecap:round;stroke-linejoin:round;stroke-miterlimit:10;}
	.st4{fill:none;}
	.st5{fill-rule:evenodd;clip-rule:evenodd;fill:#623E91;}
</style>
<g>
	<g>
		<path class="st0" d="M44.4,58.8H6.9c-3.3,0-6-2.7-6-6V6.9c0-3.3,2.7-6,6-6h37.5V58.8z"/>
		<path class="st0" d="M0.9,53.1c0-3.3,2.7-6,6-6h37.5"/>
		<line class="st0" x1="8.8" y1="0.9" x2="8.8" y2="47.2"/>
		<line class="st1" x1="19.8" y1="51.5" x2="41.8" y2="51.5"/>
		<line class="st1" x1="9.7" y1="55" x2="41.8" y2="55"/>
		<line class="st1" x1="9.7" y1="51.5" x2="14.6" y2="51.5"/>
		<g>
			<circle class="st1" cx="26.2" cy="24" r="8.7"/>
			<g>
				<path class="st2" d="M28.2,29.5h-3.9c-0.3,0-0.6-0.3-0.6-0.6v-2.4h-2.4c-0.3,0-0.6-0.3-0.6-0.6v-3.9c0-0.3,0.3-0.6,0.6-0.6h2.4
					v-2.4c0-0.3,0.3-0.6,0.6-0.6h3.9c0.3,0,0.6,0.3,0.6,0.6v2.4h2.4c0.3,0,0.6,0.3,0.6,0.6V26c0,0.3-0.3,0.6-0.6,0.6h-2.4V29
					C28.7,29.3,28.5,29.5,28.2,29.5z M24.8,28.4h2.8V26c0-0.3,0.3-0.6,0.6-0.6h2.4v-2.8h-2.4c-0.3,0-0.6-0.3-0.6-0.6v-2.4h-2.8v2.4
					c0,0.3-0.3,0.6-0.6,0.6h-2.4v2.8h2.4c0.3,0,0.6,0.3,0.6,0.6V28.4z"/>
			</g>
		</g>
	</g>
</g>
</svg>
