<?xml version="1.0" encoding="utf-8"?>
<!-- Generator: Adobe Illustrator 24.3.0, SVG Export Plug-In . SVG Version: 6.00 Build 0)  -->
<svg version="1.1" id="Capa_1" xmlns="http://www.w3.org/2000/svg" xmlns:xlink="http://www.w3.org/1999/xlink" x="0px" y="0px"
	 viewBox="0 0 43.1 59.9" style="enable-background:new 0 0 43.1 59.9;" xml:space="preserve">
<style type="text/css">
	.st0{fill:none;stroke:#623E91;stroke-width:1.8855;stroke-linecap:round;stroke-linejoin:round;stroke-miterlimit:10;}
	.st1{fill:none;stroke:#623E91;stroke-width:1.4141;stroke-linecap:round;stroke-linejoin:round;stroke-miterlimit:10;}
	.st2{fill:#623E91;}
	.st3{fill:none;stroke:#623E91;stroke-width:2.2;stroke-linecap:round;stroke-linejoin:round;stroke-miterlimit:10;}
	.st4{fill:none;}
	.st5{fill-rule:evenodd;clip-rule:evenodd;fill:#623E91;}
</style>
<g>
	<g>
		<path class="st2" d="M37.2,8.4h-6.1V10h6.1v44.2h-31V10h6V8.4H6c-0.8,0-1.5,0.6-1.5,1.5v44.5c0,0.8,0.6,1.5,1.5,1.5h31.2
			c0.8,0,1.5-0.6,1.5-1.5V9.9C38.6,9.1,38,8.4,37.2,8.4z"/>
		<path class="st2" d="M30,2.2h-5.9c0.2,0.4,0.3,0.9,0.3,1.3c0,0,0,0,0,0.1H30c0.2,0,0.3,0.1,0.3,0.3v6.7c0,0.2-0.1,0.3-0.3,0.3
			H13.1c-0.2,0-0.3-0.1-0.3-0.3V3.9c0-0.2,0.1-0.3,0.3-0.3h5.6c0,0,0,0,0-0.1c0-0.5,0.1-0.9,0.3-1.3h-5.9c-0.9,0-1.7,0.8-1.7,1.7
			v6.7c0,0.9,0.8,1.7,1.7,1.7H30c0.9,0,1.7-0.8,1.7-1.7V3.9C31.7,3,31,2.2,30,2.2z"/>
		<g>
			<path class="st2" d="M21.6,7.1c-2,0-3.6-1.6-3.6-3.6S19.6,0,21.6,0s3.6,1.6,3.6,3.6S23.5,7.1,21.6,7.1z M21.6,1.3
				c-1.2,0-2.2,1-2.2,2.2s1,2.2,2.2,2.2c1.2,0,2.2-1,2.2-2.2S22.8,1.3,21.6,1.3z"/>
		</g>
		<g>
			<path class="st2" d="M24,29.2h-4.9c-0.4,0-0.7-0.3-0.7-0.7v-3h-3c-0.4,0-0.7-0.3-0.7-0.7v-4.9c0-0.4,0.3-0.7,0.7-0.7h3v-3
				c0-0.4,0.3-0.7,0.7-0.7H24c0.4,0,0.7,0.3,0.7,0.7v3h3c0.4,0,0.7,0.3,0.7,0.7v4.9c0,0.4-0.3,0.7-0.7,0.7h-3v3
				C24.7,28.9,24.4,29.2,24,29.2z M19.8,27.8h3.5v-3c0-0.4,0.3-0.7,0.7-0.7h3v-3.5h-3c-0.4,0-0.7-0.3-0.7-0.7v-3h-3.5v3
				c0,0.4-0.3,0.7-0.7,0.7h-3V24h3c0.4,0,0.7,0.3,0.7,0.7V27.8z"/>
		</g>
		<g>
			<path class="st2" d="M34.2,35.3h-23c-0.4,0-0.7-0.3-0.7-0.7c0-0.4,0.3-0.7,0.7-0.7h23c0.4,0,0.7,0.3,0.7,0.7
				C34.9,35,34.6,35.3,34.2,35.3z"/>
		</g>
		<g>
			<path class="st2" d="M34.2,41.3h-23c-0.4,0-0.7-0.3-0.7-0.7c0-0.4,0.3-0.7,0.7-0.7h23c0.4,0,0.7,0.3,0.7,0.7
				C34.9,41,34.6,41.3,34.2,41.3z"/>
		</g>
		<g>
			<path class="st2" d="M34.2,47.4h-23c-0.4,0-0.7-0.3-0.7-0.7c0-0.4,0.3-0.7,0.7-0.7h23c0.4,0,0.7,0.3,0.7,0.7
				C34.9,47.1,34.6,47.4,34.2,47.4z"/>
		</g>
		<path class="st2" d="M39.5,3.9H31c0,0,0,0,0,0v1.6h8.7c0.9,0,1.7,0.8,1.7,1.7v49.3c0,0.9-0.8,1.7-1.7,1.7H3.5
			c-0.9,0-1.7-0.8-1.7-1.7V7.3c0-0.9,0.8-1.7,1.7-1.7h8.6V3.9c0,0,0,0,0,0H3.7C1.6,3.9,0,5.6,0,7.6v48.6c0,2,1.6,3.7,3.7,3.7h35.8
			c2,0,3.7-1.6,3.7-3.7V7.6C43.1,5.6,41.5,3.9,39.5,3.9z"/>
	</g>
</g>
</svg>
