<?xml version="1.0" encoding="utf-8"?>
<!-- Generator: Adobe Illustrator 24.3.0, SVG Export Plug-In . SVG Version: 6.00 Build 0)  -->
<svg version="1.1" id="Capa_1" xmlns="http://www.w3.org/2000/svg" xmlns:xlink="http://www.w3.org/1999/xlink" x="0px" y="0px"
	 viewBox="0 0 61.1 58.8" style="enable-background:new 0 0 61.1 58.8;" xml:space="preserve">
<style type="text/css">
	.st0{fill:none;stroke:#623E91;stroke-width:1.8855;stroke-linecap:round;stroke-linejoin:round;stroke-miterlimit:10;}
	.st1{fill:none;stroke:#623E91;stroke-width:1.4141;stroke-linecap:round;stroke-linejoin:round;stroke-miterlimit:10;}
	.st2{fill:#623E91;}
	.st3{fill:none;stroke:#623E91;stroke-width:2.2;stroke-linecap:round;stroke-linejoin:round;stroke-miterlimit:10;}
	.st4{fill:none;}
	.st5{fill-rule:evenodd;clip-rule:evenodd;fill:#623E91;}
</style>
<g>
	<g>
		<g>
			<g>
				<g>
					<g>
						<g>
							<g>
								<g>
									<path class="st2" d="M41.3,35.7c0,0.8-0.7,1.5-1.5,1.5s-1.5-0.7-1.5-1.5c0-0.8,0.7-1.5,1.5-1.5S41.3,34.8,41.3,35.7z"/>
								</g>
							</g>
						</g>
					</g>
				</g>
				<g>
					<g>
						<g>
							<g>
								<g>
									<g>
										<path class="st2" d="M45.8,35.7c0,0.8-0.7,1.5-1.5,1.5c-0.8,0-1.5-0.7-1.5-1.5c0-0.8,0.7-1.5,1.5-1.5
											C45.1,34.2,45.8,34.8,45.8,35.7z"/>
									</g>
								</g>
							</g>
						</g>
					</g>
				</g>
				<g>
					<g>
						<g>
							<g>
								<g>
									<g>
										<path class="st2" d="M50.3,35.7c0,0.8-0.7,1.5-1.5,1.5c-0.8,0-1.5-0.7-1.5-1.5c0-0.8,0.7-1.5,1.5-1.5
											C49.7,34.2,50.3,34.8,50.3,35.7z"/>
									</g>
								</g>
							</g>
						</g>
					</g>
				</g>
			</g>
			<path class="st2" d="M57.7,43.4c2.2-2.3,3.4-5.1,3.4-7.9c0-7.2-7.4-13-16.5-13.1c-0.6,0.7-1.2,1.3-1.8,1.8c0.6,0,1.1-0.1,1.7-0.1
				c8.2,0,15,5.1,15,11.4c0,2.6-1.1,5-3.2,7.1c-0.2,0.2-0.3,0.6-0.2,0.9l1.7,5.3l-6.5-2.8c-0.1,0-0.2-0.1-0.4-0.1
				c-0.1,0-0.2,0-0.3,0c-1.9,0.6-3.9,1-6,1c-8.2,0-15-5.1-15-11.4c0-3.4,2-6.5,5.2-8.6c-0.8,0-1.7-0.1-2.5-0.3
				c-2.8,2.3-4.5,5.5-4.5,8.9c0,7.2,7.5,13.1,16.7,13.1c2.2,0,4.3-0.3,6.3-0.9l7.9,3.5c0.1,0,0.2,0.1,0.3,0.1c0.2,0,0.4-0.1,0.6-0.2
				c0.3-0.2,0.4-0.6,0.2-0.9L57.7,43.4z"/>
		</g>
		<g>
			<g>
				<g>
					<g>
						<g>
							<path class="st2" d="M23.1,58.8c-2.5,0-5.1-0.9-7.4-2.6c-3.6-2.7-8.9-12.4-9.1-12.8c-0.2-0.4-6-9.9-6.5-14.3
								c-0.4-3.6,0.5-6.9,2.7-9.4c0.3-0.3,0.5-0.6,0.9-0.9c2.4-2.2,6.1-3.9,6.3-4c0.1-0.1,0.4-0.2,0.7-0.2c0.5,0,1,0.3,1.3,0.7
								l6.3,10.8c0.2,0.3,0.2,0.7,0.1,1.1c-0.1,0.4-0.3,0.7-0.7,0.9l-0.1,0.1c-0.5,0.3-1.4,0.8-2.7,1.6c-1.5,0.8-2.6,1.1-3.4,1.1
								c0.7,1.6,2.4,4.8,4,7.4c1.5,2.7,3.3,5.8,4.4,7.2c0.5-0.7,1.3-1.5,2.7-2.4c1.6-1,2.4-1.4,2.6-1.5c0,0,0.1-0.1,0.2-0.1
								c0.7-0.4,1.6-0.1,2,0.5l6.3,10.8c0.4,0.7,0.2,1.6-0.5,2c-0.1,0.1-3.4,2.4-6.6,3.4C25.4,58.7,24.2,58.8,23.1,58.8z M10.5,16.5
								c-0.9,0.4-3.8,1.9-5.7,3.6c-0.3,0.2-0.5,0.5-0.7,0.8c-2.3,2.7-2.5,5.9-2.3,8.1C2.3,33,8,42.5,8.1,42.6
								c0.1,0.1,5.4,9.9,8.7,12.3c2.8,2.1,6.1,2.8,9.1,1.8c2.5-0.8,5.3-2.6,6-3.1l-6-10.4c-0.2,0.1-0.8,0.4-2.6,1.5
								c-2.3,1.3-2.4,2.5-2.4,2.5c0,0.3-0.2,0.6-0.5,0.7c-0.3,0.1-0.6,0.1-0.8,0c-1.4-0.8-4.7-6.8-5.7-8.6c-1-1.8-4.5-7.7-4.6-9.3
								c0-0.3,0.1-0.6,0.4-0.7s0.6-0.2,0.8-0.1l0,0c0,0,0.2,0.1,0.5,0.1l0,0c0.6,0,1.5-0.2,2.8-0.9c1.2-0.7,2.1-1.2,2.6-1.5
								L10.5,16.5z"/>
						</g>
					</g>
				</g>
				<g>
					<path class="st2" d="M30.5,56.3c-0.3,0-0.6-0.1-0.7-0.4l-7.1-11.9c-0.2-0.4-0.1-0.9,0.3-1.2c0.4-0.2,0.9-0.1,1.2,0.3L31.3,55
						c0.2,0.4,0.1,0.9-0.3,1.2C30.9,56.3,30.7,56.3,30.5,56.3z"/>
				</g>
				<g>
					<path class="st2" d="M14.7,29.7c-0.3,0-0.6-0.1-0.7-0.4L7,17.4c-0.2-0.4-0.1-0.9,0.3-1.2c0.4-0.2,0.9-0.1,1.2,0.3l7,11.9
						c0.2,0.4,0.1,0.9-0.3,1.2C15,29.7,14.9,29.7,14.7,29.7z"/>
				</g>
			</g>
			<g>
				<g>
					<g>
						<g>
							<path class="st5" d="M41.7,17.5c-0.4-0.2-2.1-1.1-2.4-1.3c-0.3-0.1-0.6-0.2-0.8,0.1s-1,1.1-1.2,1.4C37,18,36.8,18,36.4,17.8
								c-0.4-0.2-1.5-0.6-2.9-1.9c-1-1-1.7-2.2-1.9-2.6c-0.2-0.4,0-0.6,0.2-0.7c0.2-0.2,0.4-0.4,0.6-0.6c0.2-0.2,0.3-0.4,0.4-0.6
								c0.1-0.2,0.1-0.5,0-0.6c-0.1-0.2-0.7-2-1-2.7c-0.3-0.7-0.6-0.6-0.8-0.6c-0.2,0-0.5,0-0.7-0.1c-0.2,0-0.6,0.1-1,0.4
								c-0.4,0.4-1.3,1.2-1.4,3c-0.1,1.8,1.2,3.6,1.4,3.8c0.2,0.3,2.4,4.1,6,5.7c3.6,1.6,3.7,1.1,4.3,1.1c0.7,0,2.2-0.8,2.5-1.6
								c0.3-0.8,0.4-1.6,0.3-1.7C42.3,17.8,42,17.7,41.7,17.5L41.7,17.5z M35,26.8c-2.6,0-4.9-0.8-6.9-2.1l-4.8,1.5l1.6-4.7
								c-1.5-2.1-2.4-4.6-2.4-7.4c0-6.9,5.6-12.6,12.6-12.6s12.6,5.6,12.6,12.6C47.6,21.2,41.9,26.8,35,26.8L35,26.8z M35,0
								c-7.9,0-14.3,6.4-14.3,14.3c0,2.7,0.8,5.2,2,7.4l-2.6,7.7l7.9-2.5c2,1.1,4.4,1.8,6.9,1.8c7.9,0,14.3-6.4,14.3-14.3
								S42.9,0,35,0L35,0z"/>
						</g>
					</g>
				</g>
			</g>
		</g>
	</g>
</g>
</svg>
