<?xml version="1.0" encoding="utf-8"?>
<!-- Generator: Adobe Illustrator 24.3.0, SVG Export Plug-In . SVG Version: 6.00 Build 0)  -->
<svg version="1.1" id="Capa_1" xmlns="http://www.w3.org/2000/svg" xmlns:xlink="http://www.w3.org/1999/xlink" x="0px" y="0px"
	 viewBox="0 0 50.4 50.4" style="enable-background:new 0 0 50.4 50.4;" xml:space="preserve">
<style type="text/css">
	.st0{fill:none;stroke:#623E91;stroke-width:1.8855;stroke-linecap:round;stroke-linejoin:round;stroke-miterlimit:10;}
	.st1{fill:none;stroke:#623E91;stroke-width:1.4141;stroke-linecap:round;stroke-linejoin:round;stroke-miterlimit:10;}
	.st2{fill:#623E91;}
	.st3{fill:none;stroke:#623E91;stroke-width:2.2;stroke-linecap:round;stroke-linejoin:round;stroke-miterlimit:10;}
	.st4{fill:none;}
	.st5{fill-rule:evenodd;clip-rule:evenodd;fill:#623E91;}
</style>
<g>
	<g>
		<g id="Art8F9_20_">
			<g>
				<path style="fill:#63616C;" d="M0.9,44.8c1.2,1.6,2.9,2.4,5,2.4c2.4,0,4.8,0,7.1,0c1.4,0,2.7,0,4.1,0c0.4,0,0.8,0.2,1.1,0.4
					c1.4,1.1,2.6,1.8,3.9,2.2c0.7,0.2,1.5,0.3,2.2,0.5c0.3,0.1,0.7,0.1,1,0.2h1.6l0.5-0.1c0.4-0.1,0.7-0.1,1.1-0.2
					c2-0.4,3.9-1.3,5.5-2.6c0.3-0.2,0.7-0.4,1-0.4c1.7,0,3.3,0,5,0c2.1,0,4.1,0,6.2,0c1.3,0,2.3-0.5,3.1-1.4c0.8-1,1.2-2.1,1.2-3.9
					c0-11,0-22,0-33c0-0.7-0.1-1.4-0.2-1.9c-0.4-1.8-1.3-2.9-2.7-3.5c-0.4-0.2-0.9-0.2-1.5-0.3c-0.7,0-1.4,0-2.2,0
					c-0.3,0-0.6,0-0.9,0c-0.3,0-0.5-0.2-0.5-0.5l0-0.4c0-0.3,0-0.6,0-0.9c0-0.7-0.2-1.2-0.8-1.4H41c-0.6,0.2-0.8,0.6-0.8,1.3
					c0,0.3,0,0.6,0,0.9l0,0.4c0,0.3-0.2,0.5-0.5,0.5h-6.4c-0.3,0-0.5-0.2-0.5-0.5l0-0.4c0-0.3,0-0.6,0-0.9c0-0.7-0.2-1.1-0.8-1.4
					h-0.6c-0.6,0.2-0.8,0.6-0.8,1.4c0,0.3,0,0.6,0,0.9l0,0.4c0,0.3-0.2,0.5-0.5,0.5h-6.4C23.3,3.2,23,3,23,2.7l0-0.4
					c0-0.3,0-0.6,0-0.9c0-0.7-0.2-1.1-0.8-1.4h-0.6c-0.6,0.2-0.8,0.7-0.8,1.4c0,0.3,0,0.6,0,0.9l0,0.4c0,0.3-0.2,0.5-0.5,0.5h-6.4
					c-0.3,0-0.5-0.2-0.5-0.5l0-0.4c0-0.3,0-0.6,0-0.9c0.1-0.7-0.2-1.1-0.8-1.3H12c-0.6,0.2-0.8,0.7-0.8,1.4c0,0.3,0,0.6,0,0.9l0,0.4
					c0,0.3-0.2,0.5-0.5,0.5c-0.4,0-0.8,0-1.3,0c-0.9,0-1.9,0-2.8,0c-1.3,0-2.5,0.2-3.6,0.9C1,5.2,0,6.8,0,8.9c0,7.9,0,15.8,0,23.6
					l0,9.5C0,43.1,0.3,44,0.9,44.8z M25.9,48.3C25.9,48.3,25.9,48.3,25.9,48.3C25.9,48.3,25.9,48.3,25.9,48.3
					c-5.6,0-10.2-4.6-10.1-10.2c0-2.7,1.1-5.3,3.1-7.2c2-1.9,4.5-3,7.3-2.9c5.6,0.1,10,4.6,10,10.2C36.1,43.8,31.7,48.2,25.9,48.3z
					 M2.2,8.4C2.4,6.7,3.8,6,4.8,5.6c0.5-0.2,1.1-0.2,1.6-0.3c1,0,2,0,3.1,0l1.2,0c0.3,0,0.5,0.2,0.5,0.5c0,0.2,0,0.4,0,0.7
					c0,0.5,0,0.9,0.1,1.3c0.1,0.5,0.5,0.8,1.2,0.7c0.5-0.1,0.9-0.5,0.9-1c0-0.4,0-0.7,0-1.1l0-0.5c0-0.3,0.2-0.5,0.5-0.5h6.4
					c0.3,0,0.5,0.2,0.5,0.5l0,0.5c0,0.4,0,0.7,0,1.1c0,0.6,0.4,1,0.9,1c0.6,0.1,1.1-0.2,1.2-0.8c0-0.1,0-0.2,0-0.4
					c0-0.4,0-0.7,0-1.1l0-0.4c0-0.3,0.2-0.5,0.5-0.5H30c0.3,0,0.5,0.2,0.5,0.5l0,0.5c0,0.4,0,0.7,0,1.1c0,0.7,0.4,1.1,1.1,1.1
					c0,0,0,0,0,0c0.6,0,1.1-0.4,1.1-1.1c0-0.3,0-0.7,0-1.1l0-0.5c0-0.3,0.2-0.5,0.5-0.5h6.4c0.3,0,0.5,0.2,0.5,0.5l0,0.5
					c0,0.3,0,0.7,0,1c0,0.5,0.2,1.1,1,1.1c0.7,0,1.1-0.3,1.1-1c0-0.3,0-0.7,0-1.1c0-0.2,0-0.4,0-0.6c0-0.3,0.2-0.5,0.5-0.5
					c0.3,0,0.7,0,1,0c0.8,0,1.6,0,2.4,0c1,0.1,1.7,0.9,1.9,2.1l0,0.1c0,0.3,0.1,0.6,0.1,1c0,0.9,0,1.8,0,2.7l0,1.1
					c0,0.3-0.2,0.5-0.5,0.5l-0.8,0c-0.6,0-1.2,0-1.7,0l-0.2,0c-0.3,0-0.6,0-0.9,0.1c-0.7,0.2-0.7,1-0.7,1.3c0.1,0.5,0.5,0.8,1,0.8
					c0.7,0,1.5,0,2.3,0l1,0c0.3,0,0.5,0.2,0.5,0.5V21c0,6.9,0,13.8,0,20.8c0,0.5-0.1,1-0.2,1.6c-0.2,1-0.9,1.6-2,1.6
					c-2.1,0-4.3,0-6.5,0l-2.5,0c-0.2,0-0.4-0.1-0.5-0.3c-0.1-0.2-0.1-0.4,0-0.5c0.9-1.7,1.4-3.2,1.5-4.6c0-0.3,0.3-0.5,0.5-0.5
					l2.6,0c1.1,0,2.1,0,3.2,0c0.3,0,0.6-0.1,0.8-0.3c0.2-0.2,0.3-0.5,0.3-0.8c0-0.7-0.4-1.1-1.1-1.1c-1.3,0-2.6,0-4,0l-1.8,0
					c-0.2,0-0.5-0.2-0.5-0.4c-0.1-0.2-0.1-0.5-0.2-0.7c-0.1-0.5-0.2-1-0.4-1.5c-0.2-0.6-0.5-1.2-0.8-1.8c-0.1-0.3-0.2-0.5-0.4-0.8
					c0-0.1-0.1-0.2-0.1-0.3l-0.2-0.3c-0.2-0.2-0.4-0.4-0.6-0.7c-0.4-0.5-0.9-1-1.3-1.5c-2.9-2.7-6.4-3.8-10.1-3.2
					C20.8,26.4,18,28.1,16,31c-0.1,0.1-0.1,0.1-0.2,0.2l-0.3,0.4c-0.1,0.1-0.2,0.3-0.3,0.5c-0.2,0.4-0.4,0.8-0.6,1.3
					c-0.3,0.7-0.5,1.4-0.7,2.2c-0.1,0.3-0.2,0.7-0.3,1c-0.1,0.2-0.3,0.4-0.5,0.4L12,37c-0.9,0-1.9,0-2.9,0c-0.5,0-0.9,0.2-1,0.6
					c-0.1,0.4-0.1,1,0.3,1.3c0.2,0.1,0.5,0.2,0.7,0.2c1,0,2,0,3,0l1.1,0c0.2,0,0.5,0.2,0.5,0.4c0.1,0.3,0.1,0.5,0.2,0.8
					c0.1,0.6,0.2,1.1,0.4,1.6c0.2,0.5,0.4,1,0.6,1.6c0.1,0.2,0.2,0.5,0.3,0.7c0.1,0.2,0.1,0.3,0,0.5C15.2,44.9,15,45,14.9,45l-0.1,0
					c-0.1,0-0.2,0-0.3,0l-1.9,0c-1,0-1.9,0-2.9,0c-1.1,0-2.3,0-3.4,0c-1.3,0-2.5-0.5-3.4-1.5c-0.4-0.5-0.7-1-0.7-1.7
					c0-8.7,0-17.4,0-26c0-0.1,0-0.1,0-0.2l0-0.1c0-0.3,0.3-0.5,0.5-0.5L38,15c0.5,0,0.8-0.2,1-0.6c0.2-0.4,0.1-1-0.2-1.2
					c-0.3-0.2-0.6-0.3-0.9-0.3c-4.2,0-8.4,0-12.6,0l-22.7,0c-0.3,0-0.5-0.2-0.5-0.5c0-0.4,0-0.8,0-1.2C2.1,10.2,2.1,9.3,2.2,8.4z"/>
				<path style="fill:#63616C;" d="M37.1,30.6c0,0,0,0.1,0.1,0.1l0.1,0.1c0.3,0.2,0.6,0.3,1.1,0.3c1.4,0,2.8,0,4.2,0l1.8,0
					c0.8,0,1.2-0.4,1.2-1.1c0-0.3-0.1-0.6-0.3-0.8c-0.2-0.2-0.5-0.3-0.9-0.3c-2.1,0-4.2,0-6.2,0c-0.3,0-0.7,0.1-0.9,0.3
					C37,29.5,37,29.9,37,30.2C37,30.3,37,30.4,37.1,30.6z"/>
				<path style="fill:#63616C;" d="M12.3,29l-3.1,0c-0.4,0-0.7,0.1-0.9,0.3C8.1,29.5,8,29.7,8,30c0,0.7,0.4,1.1,1.1,1.1l1.1,0
					c1.1,0,2.2,0,3.3,0c0.3,0,0.6-0.1,0.9-0.2c0.1,0,0.2-0.1,0.3-0.1l0.2-0.3c0.1-0.6,0.1-1-0.1-1.2c-0.2-0.2-0.6-0.4-1.3-0.4
					L12.3,29z"/>
				<path style="fill:#63616C;" d="M37,22c0,0.7,0.4,1.1,1.1,1.1c0.7,0,1.4,0,2,0l1.1,0l0.9,0l2.3,0c0.7,0,1.1-0.4,1.1-1.1
					c0-0.3-0.1-0.6-0.3-0.8c-0.2-0.2-0.5-0.3-0.8-0.3c-1.1,0-2.1,0-3.2,0c-1.1,0-2.1,0-3.2,0C37.6,20.9,37,21.1,37,22z"/>
				<path style="fill:#63616C;" d="M8,22c0,0.3,0.1,0.6,0.3,0.8c0.2,0.2,0.5,0.3,0.8,0.3c1.6,0,3.1,0,4.7,0c0.7,0,1.1-0.4,1.1-1.1
					c0-0.7-0.4-1.1-1.1-1.1c-0.5,0-1.1,0-1.6,0l-0.7,0l-0.7,0l-1.7,0C8.5,20.9,8,21.3,8,22z"/>
				<path style="fill:#63616C;" d="M31.6,20.9l-0.7,0l-0.7,0c-0.2,0-0.5,0-0.7,0c-0.3,0-0.6,0-1,0c-0.7,0-1.1,0.4-1.1,1.1
					c0,0.7,0.4,1.1,1.1,1.1c1.6,0,3.2,0,4.8,0c0.3,0,0.6-0.1,0.8-0.3c0.2-0.2,0.3-0.5,0.3-0.8c0-0.6-0.4-1.1-1.1-1.1
					C32.7,20.9,32.1,20.9,31.6,20.9z"/>
				<path style="fill:#63616C;" d="M17.7,22c0,0.3,0.1,0.6,0.3,0.8c0.2,0.2,0.5,0.3,0.8,0.3c0.5,0,1.1,0,1.6,0l0.7,0l0.7,0c0.6,0,1.1,0,1.7,0
					c0.7,0,1.1-0.4,1.1-1.1c0-0.7-0.4-1.1-1.1-1.1c-0.8,0-1.7,0-2.5,0c-0.8,0-1.5,0-2.3,0C18.1,20.9,17.7,21.3,17.7,22z"/>
			</g>
		</g>
		<polyline style="fill:#63616C;" points="25.2,31.1 25.2,38.6 32.3,35.3 		"/>
	</g>
</g>
</svg>
