<?xml version="1.0" encoding="utf-8"?>
<!-- Generator: Adobe Illustrator 26.0.0, SVG Export Plug-In . SVG Version: 6.00 Build 0)  -->
<svg version="1.1" id="Capa_1" xmlns="http://www.w3.org/2000/svg" xmlns:xlink="http://www.w3.org/1999/xlink" x="0px" y="0px"
	 viewBox="0 0 85 70.2" style="enable-background:new 0 0 85 70.2;" xml:space="preserve">
<style type="text/css">
	.st0{fill:none;stroke:#623E91;stroke-width:2.5132;stroke-linecap:round;stroke-linejoin:round;stroke-miterlimit:10;}
	.st1{fill:#623E91;}
	.st2{fill:#6C3D8F;}
</style>
<g>
	<g>
		<path class="st2" d="M40.7,70.2c-6.7,0-13.2-2.8-17.8-8c-4.2-4.8-6.3-11-5.8-17.4c0.5-6.4,3.4-12.4,8.3-16.7
			c0.1-0.1,0.2-0.1,0.2-0.2c0.3-0.3,0.8-0.2,1.1,0.1c0.3,0.3,0.2,0.8-0.1,1.1c-0.1,0.1-0.2,0.1-0.2,0.2c-4.6,4-7.4,9.6-7.8,15.6
			c-0.5,6,1.5,11.8,5.4,16.3c6.7,7.6,17.9,9.7,27.1,4.9c0.4-0.2,0.8,0,1,0.3c0.2,0.4,0,0.8-0.3,1C48.3,69.3,44.5,70.2,40.7,70.2"/>
		<path class="st2" d="M42.1,14.6c-4,0-7.3-3.3-7.3-7.3c0-4,3.3-7.3,7.3-7.3s7.3,3.3,7.3,7.3C49.5,11.3,46.2,14.6,42.1,14.6
			 M42.1,1.5c-3.2,0-5.8,2.6-5.8,5.8c0,3.2,2.6,5.8,5.8,5.8c3.2,0,5.8-2.6,5.8-5.8C47.9,4.1,45.3,1.5,42.1,1.5"/>
		<path class="st2" d="M69,67.7c-1.7,0-3.3-1-4-2.7l-5.8-14.2H41.4c-2.8,0-5-2.2-5-5V21.7c0-3.2,2.6-5.8,5.8-5.8
			c3.2,0,5.8,2.6,5.8,5.8v6h9.3c2.1,0,3.7,1.7,3.7,3.7c0,2.1-1.7,3.7-3.7,3.7h-9.3V40h12.4c2.6,0,4.2,1.1,5.3,3.6
			c1.9,4.4,7.2,17.9,7.3,18.2c0.4,1.1,0.4,2.2,0,3.3c-0.5,1.1-1.3,1.9-2.4,2.3C70.1,67.6,69.6,67.7,69,67.7 M42.3,17.5
			c-2.4,0-4.3,1.9-4.3,4.3v24.1c0,1.9,1.5,3.4,3.4,3.4h18.9l6.2,15.1c0.6,1.4,2.2,2.1,3.6,1.5c0.7-0.3,1.2-0.8,1.5-1.5
			c0.3-0.7,0.3-1.4,0-2.1l0,0c-0.1-0.1-5.4-13.7-7.3-18.1c-0.8-1.9-1.9-2.6-3.9-2.6H46.5v-7.8h10.8c1.2,0,2.2-1,2.2-2.2
			c0-1.2-1-2.2-2.2-2.2H46.5v-7.5C46.5,19.4,44.6,17.5,42.3,17.5"/>
	</g>
</g>
</svg>
