<?xml version="1.0" encoding="utf-8"?>
<!-- Generator: Adobe Illustrator 24.3.0, SVG Export Plug-In . SVG Version: 6.00 Build 0)  -->
<svg version="1.1" id="Capa_1" xmlns="http://www.w3.org/2000/svg" xmlns:xlink="http://www.w3.org/1999/xlink" x="0px" y="0px"
	 viewBox="0 0 50.7 60.7" style="enable-background:new 0 0 50.7 60.7;" xml:space="preserve">
<style type="text/css">
	.st0{fill:none;stroke:#623E91;stroke-width:1.8855;stroke-linecap:round;stroke-linejoin:round;stroke-miterlimit:10;}
	.st1{fill:none;stroke:#623E91;stroke-width:1.4141;stroke-linecap:round;stroke-linejoin:round;stroke-miterlimit:10;}
	.st2{fill:#623E91;}
	.st3{fill:none;stroke:#623E91;stroke-width:2.2;stroke-linecap:round;stroke-linejoin:round;stroke-miterlimit:10;}
	.st4{fill:none;}
	.st5{fill-rule:evenodd;clip-rule:evenodd;fill:#623E91;}
</style>
<g>
	<g>
		<path class="st2" d="M32,57.1H2.1V1.7h38.4v36.8c0.7,0.1,1.4,0.2,2,0.4V1.8c0-1-0.8-1.8-1.8-1.8H1.8C0.8,0,0,0.8,0,1.8v55.4
			c0,1,0.8,1.8,1.8,1.8h33.3C34,58.6,32.9,57.9,32,57.1z"/>
		<g>
			<path class="st2" d="M33.2,18.9h-3.9c-0.3,0-0.6-0.3-0.6-0.6v-2.4h-2.4c-0.3,0-0.6-0.3-0.6-0.6v-3.9c0-0.3,0.3-0.6,0.6-0.6h2.4
				V8.5C28.8,8.2,29,8,29.3,8h3.9c0.3,0,0.6,0.3,0.6,0.6v2.4h2.4c0.3,0,0.6,0.3,0.6,0.6v3.9c0,0.3-0.3,0.6-0.6,0.6h-2.4v2.4
				C33.8,18.6,33.5,18.9,33.2,18.9z M29.9,17.8h2.8v-2.4c0-0.3,0.3-0.6,0.6-0.6h2.4v-2.8h-2.4c-0.3,0-0.6-0.3-0.6-0.6V9.1h-2.8v2.4
				c0,0.3-0.3,0.6-0.6,0.6h-2.4v2.8h2.4c0.3,0,0.6,0.3,0.6,0.6V17.8z"/>
		</g>
		<g>
			<path class="st2" d="M37,33.5H8.4c-0.5,0-0.9-0.4-0.9-0.9c0-0.5,0.4-0.9,0.9-0.9H37c0.5,0,0.9,0.4,0.9,0.9
				C37.9,33.1,37.5,33.5,37,33.5z"/>
		</g>
		<g>
			<path class="st2" d="M19,14.1H8.4c-0.5,0-0.9-0.4-0.9-0.9s0.4-0.9,0.9-0.9H19c0.5,0,0.9,0.4,0.9,0.9S19.4,14.1,19,14.1z"/>
		</g>
		<g>
			<path class="st2" d="M19,18.2H8.4c-0.5,0-0.9-0.4-0.9-0.9s0.4-0.9,0.9-0.9H19c0.5,0,0.9,0.4,0.9,0.9S19.4,18.2,19,18.2z"/>
		</g>
		<g>
			<path class="st2" d="M35,39.2H8.4c-0.5,0-0.9,0.4-0.9,0.9c0,0.5,0.4,0.9,0.9,0.9h23.8C33,40.3,33.9,39.7,35,39.2z"/>
		</g>
		<g>
			<path class="st2" d="M28.7,46.7H8.4c-0.5,0-0.9,0.4-0.9,0.9s0.4,0.9,0.9,0.9h20.1C28.5,47.9,28.6,47.3,28.7,46.7z"/>
		</g>
		<g>
			<path class="st2" d="M39.1,60.7c-6.4,0-11.5-5.2-11.5-11.5c0-6.4,5.2-11.5,11.5-11.5s11.5,5.2,11.5,11.5
				C50.7,55.5,45.5,60.7,39.1,60.7z M39.1,39.2c-5.5,0-9.9,4.4-9.9,9.9s4.4,9.9,9.9,9.9s9.9-4.4,9.9-9.9
				C49.1,43.6,44.6,39.2,39.1,39.2z"/>
		</g>
		<path class="st2" d="M37.5,53.4c-0.3,0-0.5-0.1-0.7-0.3l-3-2.6c-0.5-0.4-0.5-1.1-0.1-1.6c0.4-0.5,1.1-0.5,1.6-0.1l2.1,1.9l5.2-5.5
			c0.4-0.4,1.1-0.5,1.6-0.1c0.4,0.4,0.5,1.1,0.1,1.6L38.3,53C38.1,53.3,37.8,53.4,37.5,53.4z"/>
	</g>
</g>
</svg>
