<?xml version="1.0" encoding="utf-8"?>
<!-- Generator: Adobe Illustrator 24.3.0, SVG Export Plug-In . SVG Version: 6.00 Build 0)  -->
<svg version="1.1" id="Capa_1" xmlns="http://www.w3.org/2000/svg" xmlns:xlink="http://www.w3.org/1999/xlink" x="0px" y="0px"
	 viewBox="0 0 61.7 59.1" style="enable-background:new 0 0 61.7 59.1;" xml:space="preserve">
<style type="text/css">
	.st0{fill:none;stroke:#623E91;stroke-width:1.8855;stroke-linecap:round;stroke-linejoin:round;stroke-miterlimit:10;}
	.st1{fill:none;stroke:#623E91;stroke-width:1.4141;stroke-linecap:round;stroke-linejoin:round;stroke-miterlimit:10;}
	.st2{fill:#623E91;}
	.st3{fill:none;stroke:#623E91;stroke-width:2.2;stroke-linecap:round;stroke-linejoin:round;stroke-miterlimit:10;}
	.st4{fill:none;}
	.st5{fill-rule:evenodd;clip-rule:evenodd;fill:#623E91;}
</style>
<g>
	<g>
		<g>
			<path class="st0" d="M50.5,23.1H20.6v-3.7c0-2.3-1.9-4.3-4.3-4.3H5.2c-2.3,0-4.3,1.9-4.3,4.3v7.4v27.2v0.6c0,2,1.6,3.7,3.7,3.7
				h0.6h11.2h34.2c2,0,3.7-1.6,3.7-3.7V26.7C54.2,24.7,52.6,23.1,50.5,23.1z"/>
			<path class="st0" d="M54.2,31.1h3.3c2.3,0,3.8,2.3,2.9,4.4l-5.2,18.8c-0.6,2.3-2.7,3.8-5.1,3.8h-3.4"/>
		</g>
		<path class="st0" d="M11.8,15.1V3c0-1.1,0.9-2,2-2h33.2c1.1,0,2,0.9,2,2v20.1"/>
		<line class="st1" x1="35.2" y1="5.5" x2="44.5" y2="5.5"/>
		<line class="st1" x1="16.7" y1="11.2" x2="44.5" y2="11.2"/>
		<line class="st1" x1="24.2" y1="16.1" x2="44.5" y2="16.1"/>
		<g>
			<circle class="st1" cx="28.9" cy="39.5" r="8.7"/>
			<g>
				<path class="st2" d="M30.8,45h-3.9c-0.3,0-0.6-0.3-0.6-0.6V42H24c-0.3,0-0.6-0.3-0.6-0.6v-3.9c0-0.3,0.3-0.6,0.6-0.6h2.4v-2.4
					c0-0.3,0.3-0.6,0.6-0.6h3.9c0.3,0,0.6,0.3,0.6,0.6V37h2.4c0.3,0,0.6,0.3,0.6,0.6v3.9c0,0.3-0.3,0.6-0.6,0.6h-2.4v2.4
					C31.4,44.7,31.1,45,30.8,45z M27.5,43.8h2.8v-2.4c0-0.3,0.3-0.6,0.6-0.6h2.4v-2.8h-2.4c-0.3,0-0.6-0.3-0.6-0.6v-2.4h-2.8v2.4
					c0,0.3-0.3,0.6-0.6,0.6h-2.4v2.8h2.4c0.3,0,0.6,0.3,0.6,0.6V43.8z"/>
			</g>
		</g>
	</g>
</g>
</svg>
