<svg id="Capa_1" data-name="Capa 1" xmlns="http://www.w3.org/2000/svg" viewBox="0 0 469 171"><defs><style>.cls-1{fill:#fff;}.cls-2{fill:#00bcff;}</style></defs><path class="cls-1" d="M320.84,77.27l27,38.18-1.19.52L320.84,79.42,295.12,116l-1.18-.52Z"/><path class="cls-1" d="M295.29,116.56l-2.07-.91,27.62-39.2,27.67,39.2-2.07.91-25.6-36.32Zm25.55-38,25.93,36.78.3-.13L320.84,78.09l-26.18,37.16.3.13Z"/><path class="cls-1" d="M295.21,116.27l-1.63-.72.17-.23,27.09-38.46.2.27,27.11,38.42-1.63.72-.11-.16L320.84,79.83ZM320.84,79l25.85,36.67.74-.33L320.84,77.68,294.3,115.35l.74.33Z"/><polygon class="cls-1" points="295.37 116.86 292.86 115.75 293.36 115.04 320.84 76.04 321.42 76.86 348.87 115.75 346.36 116.86 346.02 116.39 320.84 80.66 295.37 116.86"/><path class="cls-1" d="M346.6,30.93l1.19.52-27,38.18-26.9-38.18,1.18-.52,25.72,36.55Z"/><path class="cls-1" d="M320.84,70.45l-27.62-39.2,2.07-.91,25.55,36.32,25.6-36.32,2.07.91Zm-26.18-38.8,26.18,37.16,26.23-37.16-.3-.13L320.84,68.3,295,31.52Z"/><path class="cls-1" d="M320.84,70l-.19-.27L293.58,31.35l1.63-.72.11.16,25.52,36.28,25.68-36.44,1.63.72-.17.24ZM294.3,31.55l26.54,37.67,26.59-37.67-.74-.33L320.84,67.89l-.19-.27L295,31.22Z"/><polygon class="cls-1" points="320.84 70.86 292.86 31.15 295.37 30.04 295.71 30.52 320.84 66.25 346.36 30.04 348.87 31.15 320.84 70.86"/><path class="cls-1" d="M267.86,112.58H218.4V32.33h49.46v1.72H220.12V69.74h29.06v1.72H220.12v39.4h47.74Z"/><path class="cls-1" d="M268.33,113.05H217.92V31.86h50.41v2.66H220.59V69.27h29.06v2.67H220.59v38.44h47.74Zm-49.46-1h48.51v-.77H219.64V71h29.07v-.78H219.64V33.58h47.74V32.8H218.87Z"/><path class="cls-1" d="M400.64,32.33h-1.15l-30.11,79,1.46.67,9.87-25.62h.05a7.7,7.7,0,0,1,.62-1.72h-.05l18.73-49.15,18.37,48.32a8.11,8.11,0,0,1,.92,2.55h0L429.23,112l1.46-.67Z"/><path class="cls-1" d="M429,112.65,419,86.86H419l-.09-.39a7.6,7.6,0,0,0-.86-2.41l-18-47.22L382,84.19h.08l-.3.69a7.74,7.74,0,0,0-.58,1.62l-.09.36H381l-9.93,25.79-2.32-1.08,30.38-79.71H401l.12.3,30.21,79.41Zm-59-1.57.6.28,9.81-25.45a9.59,9.59,0,0,1,.42-1.14l.08-.27,19.17-50.32,18.81,49.48a8.38,8.38,0,0,1,.92,2.51l0,0,9.68,25.15.6-.28L400.31,32.8h-.49Z"/><polygon class="cls-2" points="91.51 51.58 87.75 43.86 80.08 36.19 72.65 32.52 72.65 34.46 78.99 37.65 86.29 44.96 90 52.21 93.65 63.22 93.65 81.69 90 92.7 86.29 99.95 78.99 107.26 71.84 110.86 57.34 110.86 50.13 107.26 42.88 99.95 39.13 92.7 35.52 81.69 35.52 63.22 39.13 52.21 42.88 44.96 50.13 37.65 56.31 34.56 56.31 32.6 49.09 36.19 41.37 43.86 37.66 51.58 33.8 63.01 33.8 81.9 37.66 93.33 41.37 101.05 49.09 108.72 56.87 112.58 72.26 112.58 80.08 108.72 87.75 101.05 91.51 93.33 95.37 81.9 95.37 63.01 91.51 51.58"/><polygon class="cls-2" points="72.48 113.53 56.64 113.53 48.42 109.39 40.52 101.46 36.81 93.74 32.86 81.9 32.91 62.71 36.77 51.28 40.7 43.19 48.67 35.34 57.26 31.08 57.26 35.15 50.7 38.43 43.66 45.52 39.97 52.64 36.47 63.37 36.47 81.54 40.02 92.4 43.66 99.39 50.7 106.48 57.56 109.91 71.62 109.91 78.43 106.48 85.52 99.39 89.16 92.27 92.7 81.54 92.7 63.37 89.1 52.51 85.52 45.52 78.43 38.43 71.71 35.04 71.71 31 80.75 35.52 88.61 43.45 92.41 51.28 96.32 63.01 96.27 82.2 92.41 93.63 88.42 101.72 80.5 109.57 72.48 113.53"/><path class="cls-2" d="M182,111.74h-1.82L129.7,36v75.76H128V33.16h1.82l50.51,75.77V33.16H182Z"/><polygon class="cls-2" points="182.98 112.69 179.7 112.69 130.65 39.11 130.65 112.69 127.03 112.69 127.03 32.22 130.31 32.22 179.36 105.8 179.36 32.22 182.98 32.22 182.98 112.69"/><path class="cls-2" d="M65.45,82.4H63.73V19.11h1.72Z"/><rect class="cls-2" x="62.78" y="18.16" width="3.61" height="65.19"/><path class="cls-2" d="M40.47,146.89a6.64,6.64,0,0,1-.41,2.38,5.37,5.37,0,0,1-1.17,1.84,5.25,5.25,0,0,1-1.82,1.18,6.32,6.32,0,0,1-2.34.42H30.38V141.07h4.35a6.32,6.32,0,0,1,2.34.42,5.25,5.25,0,0,1,1.82,1.18,5.46,5.46,0,0,1,1.17,1.84A6.72,6.72,0,0,1,40.47,146.89Zm-1.62,0a5.68,5.68,0,0,0-.29-1.91,3.88,3.88,0,0,0-.83-1.43,3.53,3.53,0,0,0-1.3-.9,4.6,4.6,0,0,0-1.7-.3H32v9.09h2.77a4.6,4.6,0,0,0,1.7-.31,3.63,3.63,0,0,0,1.3-.89,4,4,0,0,0,.83-1.43A5.7,5.7,0,0,0,38.85,146.89Z"/><path class="cls-2" d="M51.54,151.43v1.28H44.36V141.07h7.18v1.28h-5.6v3.87h4.53v1.23H45.94v4Z"/><path class="cls-2" d="M61.33,142.89a.73.73,0,0,1-.16.18.37.37,0,0,1-.21.06.52.52,0,0,1-.32-.14c-.13-.09-.28-.19-.47-.3a3.63,3.63,0,0,0-.68-.3,2.68,2.68,0,0,0-1-.14,2.93,2.93,0,0,0-.93.14,1.89,1.89,0,0,0-.68.39,1.51,1.51,0,0,0-.4.57,1.67,1.67,0,0,0-.14.71,1.34,1.34,0,0,0,.24.81,2.27,2.27,0,0,0,.63.55,4.87,4.87,0,0,0,.89.39l1,.35a9,9,0,0,1,1,.4,3.78,3.78,0,0,1,.9.56,2.65,2.65,0,0,1,.63.84,2.79,2.79,0,0,1,.24,1.22,4,4,0,0,1-.26,1.43,3.43,3.43,0,0,1-.76,1.17,3.5,3.5,0,0,1-1.23.78,4.46,4.46,0,0,1-1.65.28,5.05,5.05,0,0,1-2.06-.41,4.74,4.74,0,0,1-1.59-1.11l.46-.75a.67.67,0,0,1,.15-.14.35.35,0,0,1,.21-.07.45.45,0,0,1,.24.09l.31.21c.11.09.24.19.39.29a2.62,2.62,0,0,0,.5.28,3.09,3.09,0,0,0,.63.22,3.37,3.37,0,0,0,.81.08,3.13,3.13,0,0,0,1-.15,2,2,0,0,0,.74-.44,1.89,1.89,0,0,0,.47-.67,2.21,2.21,0,0,0,.16-.87,1.43,1.43,0,0,0-.24-.86,2,2,0,0,0-.63-.57,4.26,4.26,0,0,0-.89-.38l-1-.33a10.54,10.54,0,0,1-1-.38,3.39,3.39,0,0,1-.89-.57,2.57,2.57,0,0,1-.63-.87,3.11,3.11,0,0,1-.24-1.3,3,3,0,0,1,.24-1.19,3.11,3.11,0,0,1,.69-1,3.51,3.51,0,0,1,1.13-.71,4.11,4.11,0,0,1,1.54-.27,4.82,4.82,0,0,1,1.78.31,4.17,4.17,0,0,1,1.41.89Z"/><path class="cls-2" d="M75.07,152.71H73.85a.56.56,0,0,1-.35-.1.66.66,0,0,1-.19-.27l-1.09-2.81H67l-1.09,2.81a.58.58,0,0,1-.19.26.53.53,0,0,1-.34.11H64.16l4.66-11.64h1.59Zm-3.29-4.32L70,143.65c0-.14-.11-.3-.17-.49s-.11-.38-.17-.6a8,8,0,0,1-.35,1.1l-1.82,4.73Z"/><path class="cls-2" d="M86.83,152.71h-1.4a.68.68,0,0,1-.63-.33l-3-4.16a1,1,0,0,0-.3-.28,1,1,0,0,0-.49-.09h-1.2v4.86H78.22V141.07h3.3a7.09,7.09,0,0,1,1.9.22,3.67,3.67,0,0,1,1.33.65,2.59,2.59,0,0,1,.78,1,3.65,3.65,0,0,1,.06,2.49,2.91,2.91,0,0,1-.57,1,3.39,3.39,0,0,1-.9.73,4.46,4.46,0,0,1-1.21.45,1.55,1.55,0,0,1,.52.5Zm-5.38-6a4,4,0,0,0,1.21-.17,2.41,2.41,0,0,0,.87-.47,1.93,1.93,0,0,0,.54-.73,2.33,2.33,0,0,0,.17-.93,1.85,1.85,0,0,0-.68-1.57,3.29,3.29,0,0,0-2-.53H79.79v4.4Z"/><path class="cls-2" d="M98.63,152.71H97.24a.7.7,0,0,1-.64-.33l-3-4.16a.79.79,0,0,0-.3-.28,1,1,0,0,0-.49-.09H91.6v4.86H90V141.07h3.29a7.16,7.16,0,0,1,1.91.22,3.67,3.67,0,0,1,1.33.65,2.47,2.47,0,0,1,.77,1,3.65,3.65,0,0,1,.06,2.49,3.07,3.07,0,0,1-.56,1,3.29,3.29,0,0,1-.91.73,4.27,4.27,0,0,1-1.2.45,1.64,1.64,0,0,1,.52.5Zm-5.37-6a4,4,0,0,0,1.2-.17,2.55,2.55,0,0,0,.88-.47,2,2,0,0,0,.53-.73,2.34,2.34,0,0,0,.18-.93,1.88,1.88,0,0,0-.68-1.57,3.35,3.35,0,0,0-2.05-.53H91.6v4.4Z"/><path class="cls-2" d="M112.48,146.89a6.57,6.57,0,0,1-.42,2.4,5.38,5.38,0,0,1-1.17,1.89,5.31,5.31,0,0,1-1.81,1.22,6.61,6.61,0,0,1-4.69,0,5.4,5.4,0,0,1-1.81-1.22,5.69,5.69,0,0,1-1.17-1.89,6.79,6.79,0,0,1-.41-2.4,6.87,6.87,0,0,1,.41-2.4,5.74,5.74,0,0,1,1.17-1.88,5.29,5.29,0,0,1,1.81-1.23,6.47,6.47,0,0,1,4.69,0,5.19,5.19,0,0,1,1.81,1.23,5.43,5.43,0,0,1,1.17,1.88A6.65,6.65,0,0,1,112.48,146.89Zm-1.62,0a6,6,0,0,0-.29-1.92,4.07,4.07,0,0,0-.83-1.44,3.52,3.52,0,0,0-1.3-.91,4.45,4.45,0,0,0-1.71-.32,4.35,4.35,0,0,0-1.69.32,3.56,3.56,0,0,0-1.31.91,3.92,3.92,0,0,0-.83,1.44,6.53,6.53,0,0,0,0,3.85,4,4,0,0,0,.83,1.43,3.56,3.56,0,0,0,1.31.91,4.54,4.54,0,0,0,1.69.31,4.65,4.65,0,0,0,1.71-.31,3.52,3.52,0,0,0,1.3-.91,4.11,4.11,0,0,0,.83-1.43A6.07,6.07,0,0,0,110.86,146.89Z"/><path class="cls-2" d="M123,151.39v1.32h-6.61V141.07h1.57v10.32Z"/><path class="cls-2" d="M132.93,151.39v1.32h-6.61V141.07h1.57v10.32Z"/><path class="cls-2" d="M146.5,146.89a6.79,6.79,0,0,1-.41,2.4,5.69,5.69,0,0,1-1.17,1.89,5.35,5.35,0,0,1-1.82,1.22,6.58,6.58,0,0,1-4.68,0,5.21,5.21,0,0,1-1.81-1.22,5.38,5.38,0,0,1-1.17-1.89,6.57,6.57,0,0,1-.42-2.4,6.65,6.65,0,0,1,.42-2.4,5.43,5.43,0,0,1,1.17-1.88,5.1,5.1,0,0,1,1.81-1.23,6.44,6.44,0,0,1,4.68,0,5.23,5.23,0,0,1,1.82,1.23,5.74,5.74,0,0,1,1.17,1.88A6.87,6.87,0,0,1,146.5,146.89Zm-1.61,0a5.77,5.77,0,0,0-.3-1.92,3.92,3.92,0,0,0-.83-1.44,3.44,3.44,0,0,0-1.3-.91,4.68,4.68,0,0,0-3.4,0,3.52,3.52,0,0,0-1.3.91,4.09,4.09,0,0,0-.84,1.44,6.53,6.53,0,0,0,0,3.85,4.13,4.13,0,0,0,.84,1.43,3.52,3.52,0,0,0,1.3.91,4.82,4.82,0,0,0,3.4,0,3.44,3.44,0,0,0,1.3-.91,4,4,0,0,0,.83-1.43A5.79,5.79,0,0,0,144.89,146.89Z"/><path class="cls-2" d="M166.25,146.89a6.64,6.64,0,0,1-.41,2.38,5.37,5.37,0,0,1-1.17,1.84,5.25,5.25,0,0,1-1.82,1.18,6.29,6.29,0,0,1-2.34.42h-4.35V141.07h4.35a6.29,6.29,0,0,1,2.34.42,5.25,5.25,0,0,1,1.82,1.18,5.46,5.46,0,0,1,1.17,1.84A6.72,6.72,0,0,1,166.25,146.89Zm-1.61,0a5.67,5.67,0,0,0-.3-1.91,3.88,3.88,0,0,0-.83-1.43,3.53,3.53,0,0,0-1.3-.9,4.56,4.56,0,0,0-1.7-.3h-2.77v9.09h2.77a4.56,4.56,0,0,0,1.7-.31,3.63,3.63,0,0,0,1.3-.89,4,4,0,0,0,.83-1.43A5.69,5.69,0,0,0,164.64,146.89Z"/><path class="cls-2" d="M177.33,151.43v1.28h-7.18V141.07h7.18v1.28h-5.6v3.87h4.53v1.23h-4.53v4Z"/><path class="cls-2" d="M192.89,142.89a.57.57,0,0,1-.16.18.32.32,0,0,1-.2.06.54.54,0,0,1-.33-.14,4.94,4.94,0,0,0-.47-.3,3.52,3.52,0,0,0-.67-.3,2.68,2.68,0,0,0-.95-.14,3,3,0,0,0-.94.14,1.85,1.85,0,0,0-.67.39,1.54,1.54,0,0,0-.41.57,1.83,1.83,0,0,0-.14.71,1.34,1.34,0,0,0,.24.81,2.18,2.18,0,0,0,.64.55,4.87,4.87,0,0,0,.89.39l1,.35a10,10,0,0,1,1,.4,3.53,3.53,0,0,1,.89.56,2.65,2.65,0,0,1,.63.84,2.79,2.79,0,0,1,.24,1.22,3.78,3.78,0,0,1-.26,1.43,3.16,3.16,0,0,1-.76,1.17,3.55,3.55,0,0,1-1.22.78,4.55,4.55,0,0,1-1.66.28,5.12,5.12,0,0,1-2.06-.41,4.6,4.6,0,0,1-1.58-1.11l.45-.75a.73.73,0,0,1,.16-.14.31.31,0,0,1,.21-.07.45.45,0,0,1,.24.09l.3.21c.11.09.24.19.39.29a3,3,0,0,0,.5.28,3.42,3.42,0,0,0,.64.22,3.29,3.29,0,0,0,.8.08,3,3,0,0,0,1-.15,2.16,2.16,0,0,0,.75-.44,1.86,1.86,0,0,0,.46-.67,2.21,2.21,0,0,0,.16-.87,1.43,1.43,0,0,0-.23-.86,2,2,0,0,0-.63-.57,4.13,4.13,0,0,0-.9-.38l-1-.33a8.89,8.89,0,0,1-1-.38,3.45,3.45,0,0,1-.9-.57,2.57,2.57,0,0,1-.63-.87,3.11,3.11,0,0,1-.24-1.3,3,3,0,0,1,.24-1.19,3,3,0,0,1,.7-1,3.4,3.4,0,0,1,1.13-.71,4.11,4.11,0,0,1,1.54-.27,4.77,4.77,0,0,1,1.77.31,4,4,0,0,1,1.41.89Z"/><path class="cls-2" d="M208.13,146.89a6.79,6.79,0,0,1-.41,2.4,5.69,5.69,0,0,1-1.17,1.89,5.25,5.25,0,0,1-1.82,1.22,6.58,6.58,0,0,1-4.68,0,5.21,5.21,0,0,1-1.81-1.22,5.38,5.38,0,0,1-1.17-1.89,6.57,6.57,0,0,1-.42-2.4,6.65,6.65,0,0,1,.42-2.4,5.43,5.43,0,0,1,1.17-1.88,5.1,5.1,0,0,1,1.81-1.23,6.44,6.44,0,0,1,4.68,0,5.14,5.14,0,0,1,1.82,1.23,5.74,5.74,0,0,1,1.17,1.88A6.87,6.87,0,0,1,208.13,146.89Zm-1.61,0a5.77,5.77,0,0,0-.3-1.92,3.92,3.92,0,0,0-.83-1.44,3.48,3.48,0,0,0-1.29-.91,4.7,4.7,0,0,0-3.41,0,3.52,3.52,0,0,0-1.3.91,4.09,4.09,0,0,0-.84,1.44,6.53,6.53,0,0,0,0,3.85,4.13,4.13,0,0,0,.84,1.43,3.52,3.52,0,0,0,1.3.91,4.84,4.84,0,0,0,3.41,0,3.48,3.48,0,0,0,1.29-.91,4,4,0,0,0,.83-1.43A5.79,5.79,0,0,0,206.52,146.89Z"/><path class="cls-2" d="M213.58,142.35v4.07h4.79v1.29h-4.79v5H212V141.07h7.17v1.28Z"/><path class="cls-2" d="M230.69,142.39h-3.77v10.32h-1.56V142.39h-3.78v-1.32h9.11Z"/><path class="cls-2" d="M249.13,141.07l-3.63,11.64h-1.42l-3-8.88c0-.08,0-.18-.07-.28s-.05-.19-.08-.3c0,.11,0,.21-.08.3l-.08.28-3,8.88h-1.41l-3.63-11.64h1.31a.58.58,0,0,1,.35.1.59.59,0,0,1,.18.27l2.41,8.1c0,.14.07.3.11.47s.06.34.1.53c0-.19.07-.37.11-.54s.09-.32.14-.46l2.74-8.1a.5.5,0,0,1,.19-.25.5.5,0,0,1,.34-.12h.46a.53.53,0,0,1,.34.1.7.7,0,0,1,.19.27l2.73,8.1c.05.14.1.29.14.45l.12.51a3.86,3.86,0,0,1,.09-.51c0-.16.06-.31.1-.45l2.41-8.1a.56.56,0,0,1,.19-.26.55.55,0,0,1,.34-.11Z"/><path class="cls-2" d="M261.26,152.71H260a.51.51,0,0,1-.34-.1.68.68,0,0,1-.2-.27l-1.09-2.81h-5.22l-1.09,2.81a.52.52,0,0,1-.19.26.53.53,0,0,1-.34.11h-1.22L255,141.07h1.59ZM258,148.39l-1.83-4.74c-.06-.14-.11-.3-.17-.49s-.12-.38-.17-.6a9.69,9.69,0,0,1-.35,1.1l-1.83,4.73Z"/><path class="cls-2" d="M273,152.71h-1.4a.7.7,0,0,1-.63-.33l-3-4.16a.79.79,0,0,0-.3-.28,1,1,0,0,0-.49-.09H266v4.86h-1.57V141.07h3.29a7.22,7.22,0,0,1,1.91.22,3.76,3.76,0,0,1,1.33.65,2.66,2.66,0,0,1,.77,1,3.65,3.65,0,0,1,.06,2.49,2.91,2.91,0,0,1-.57,1,3.1,3.1,0,0,1-.9.73,4.27,4.27,0,0,1-1.2.45,1.64,1.64,0,0,1,.52.5Zm-5.38-6a4,4,0,0,0,1.21-.17,2.55,2.55,0,0,0,.88-.47,2,2,0,0,0,.53-.73,2.34,2.34,0,0,0,.18-.93,1.86,1.86,0,0,0-.69-1.57,3.29,3.29,0,0,0-2-.53H266v4.4Z"/><path class="cls-2" d="M283.4,151.43v1.28h-7.18V141.07h7.18v1.28h-5.6v3.87h4.53v1.23H277.8v4Z"/><path class="cls-2" d="M296.75,148.07v4.64h-1.57v-4.64l-4.27-7h1.38a.53.53,0,0,1,.34.1,1.09,1.09,0,0,1,.21.26L295.5,146l.27.53a5.32,5.32,0,0,1,.21.5c.06-.17.13-.33.2-.5s.16-.34.26-.53l2.65-4.53a1,1,0,0,1,.21-.25.49.49,0,0,1,.33-.11H301Z"/><path class="cls-2" d="M318.21,152.71H317a.53.53,0,0,1-.34-.1.68.68,0,0,1-.2-.27l-1.08-2.81h-5.23l-1.09,2.81a.56.56,0,0,1-.18.26.58.58,0,0,1-.35.11h-1.21L312,141.07h1.59Zm-3.28-4.32-1.83-4.74c-.06-.14-.11-.3-.17-.49s-.12-.38-.17-.6a9.69,9.69,0,0,1-.35,1.1l-1.83,4.73Z"/><path class="cls-2" d="M324.81,141.07a6.19,6.19,0,0,1,1.92.26,3.78,3.78,0,0,1,1.35.72,3,3,0,0,1,.8,1.14,3.92,3.92,0,0,1,.26,1.49,3.75,3.75,0,0,1-.28,1.48,3.21,3.21,0,0,1-.83,1.16,4,4,0,0,1-1.36.77,5.88,5.88,0,0,1-1.86.27h-1.87v4.35h-1.57V141.07Zm0,6a3.63,3.63,0,0,0,1.19-.18,2.65,2.65,0,0,0,.87-.5,2.17,2.17,0,0,0,.53-.77,2.63,2.63,0,0,0,.18-1,2.22,2.22,0,0,0-.69-1.74,3,3,0,0,0-2.08-.63h-1.87v4.8Z"/><path class="cls-2" d="M339.36,151.39v1.32h-6.61V141.07h1.57v10.32Z"/><path class="cls-2" d="M344.3,152.71h-1.58V141.07h1.58Z"/><path class="cls-2" d="M357.07,150.31a.32.32,0,0,1,.23.1l.62.68a5,5,0,0,1-1.73,1.29,6,6,0,0,1-2.47.46,5.74,5.74,0,0,1-2.27-.43,5,5,0,0,1-1.75-1.22,5.44,5.44,0,0,1-1.12-1.88,7.4,7.4,0,0,1,0-4.83,5.54,5.54,0,0,1,1.17-1.88,5.15,5.15,0,0,1,1.8-1.23,6,6,0,0,1,2.31-.43,5.57,5.57,0,0,1,2.2.4,5.33,5.33,0,0,1,1.67,1.08l-.52.72a.41.41,0,0,1-.12.14.43.43,0,0,1-.21.05.62.62,0,0,1-.36-.16,4.47,4.47,0,0,0-.55-.35,4.62,4.62,0,0,0-.85-.36,4.49,4.49,0,0,0-1.26-.16,4.22,4.22,0,0,0-1.65.32,3.66,3.66,0,0,0-1.29.9,4.22,4.22,0,0,0-.84,1.45,5.77,5.77,0,0,0-.3,1.92,5.62,5.62,0,0,0,.31,2,4.46,4.46,0,0,0,.85,1.44,3.72,3.72,0,0,0,1.28.9,4.17,4.17,0,0,0,1.59.31,6.67,6.67,0,0,0,.94-.07,3.62,3.62,0,0,0,.77-.19,2.91,2.91,0,0,0,.66-.33,4.92,4.92,0,0,0,.6-.47A.43.43,0,0,1,357.07,150.31Z"/><path class="cls-2" d="M370.84,152.71h-1.22a.53.53,0,0,1-.34-.1.68.68,0,0,1-.2-.27L368,149.53h-5.22l-1.09,2.81a.56.56,0,0,1-.18.26.58.58,0,0,1-.35.11h-1.21l4.65-11.64h1.59Zm-3.28-4.32-1.83-4.74c-.06-.14-.11-.3-.17-.49s-.12-.38-.17-.6a9.69,9.69,0,0,1-.35,1.1l-1.83,4.73Z"/><path class="cls-2" d="M381.87,150.31a.3.3,0,0,1,.23.1l.62.68a4.94,4.94,0,0,1-1.73,1.29,5.92,5.92,0,0,1-2.47.46,5.74,5.74,0,0,1-2.27-.43,5.06,5.06,0,0,1-1.75-1.22,5.6,5.6,0,0,1-1.12-1.88,7.18,7.18,0,0,1-.4-2.42,6.7,6.7,0,0,1,.42-2.41,5.37,5.37,0,0,1,1.16-1.88,5.15,5.15,0,0,1,1.8-1.23,6,6,0,0,1,2.32-.43,5.52,5.52,0,0,1,2.19.4,5.38,5.38,0,0,1,1.68,1.08l-.52.72a.58.58,0,0,1-.13.14.41.41,0,0,1-.21.05.64.64,0,0,1-.36-.16,4.47,4.47,0,0,0-.55-.35,4.34,4.34,0,0,0-.85-.36,4.49,4.49,0,0,0-1.26-.16,4.22,4.22,0,0,0-1.65.32,3.66,3.66,0,0,0-1.29.9,4.22,4.22,0,0,0-.84,1.45,5.77,5.77,0,0,0-.3,1.92,5.87,5.87,0,0,0,.31,2,4.48,4.48,0,0,0,.86,1.44,3.68,3.68,0,0,0,1.27.9,4.17,4.17,0,0,0,1.59.31,6.56,6.56,0,0,0,.94-.07,3.47,3.47,0,0,0,.77-.19,2.55,2.55,0,0,0,.66-.33,4.92,4.92,0,0,0,.6-.47A.45.45,0,0,1,381.87,150.31Z"/><path class="cls-2" d="M387.75,152.71h-1.57V141.07h1.57Z"/><path class="cls-2" d="M403.11,146.89a6.57,6.57,0,0,1-.42,2.4,5.38,5.38,0,0,1-1.17,1.89,5.31,5.31,0,0,1-1.81,1.22,6.61,6.61,0,0,1-4.69,0,5.4,5.4,0,0,1-1.81-1.22,5.69,5.69,0,0,1-1.17-1.89,6.79,6.79,0,0,1-.41-2.4,6.87,6.87,0,0,1,.41-2.4,5.74,5.74,0,0,1,1.17-1.88,5.29,5.29,0,0,1,1.81-1.23,6.47,6.47,0,0,1,4.69,0,5.19,5.19,0,0,1,1.81,1.23,5.43,5.43,0,0,1,1.17,1.88A6.65,6.65,0,0,1,403.11,146.89Zm-1.62,0a6,6,0,0,0-.29-1.92,4.07,4.07,0,0,0-.83-1.44,3.52,3.52,0,0,0-1.3-.91,4.45,4.45,0,0,0-1.71-.32,4.39,4.39,0,0,0-1.69.32,3.56,3.56,0,0,0-1.31.91,3.92,3.92,0,0,0-.83,1.44,6.53,6.53,0,0,0,0,3.85,4,4,0,0,0,.83,1.43,3.56,3.56,0,0,0,1.31.91,4.58,4.58,0,0,0,1.69.31,4.65,4.65,0,0,0,1.71-.31,3.52,3.52,0,0,0,1.3-.91,4.11,4.11,0,0,0,.83-1.43A6.07,6.07,0,0,0,401.49,146.89Z"/><path class="cls-2" d="M416.42,141.07v11.64h-.79a.76.76,0,0,1-.32-.06,1,1,0,0,1-.24-.22l-6.74-8.78,0,.4v8.66H407V141.07h1a.4.4,0,0,1,.13,0l.12.08a.87.87,0,0,1,.12.14l6.73,8.76c0-.14,0-.27,0-.41s0-.25,0-.37v-8.25Z"/><path class="cls-2" d="M428.2,151.43v1.28H421V141.07h7.18v1.28h-5.6v3.87h4.53v1.23h-4.53v4Z"/><path class="cls-2" d="M438,142.89a.57.57,0,0,1-.16.18.37.37,0,0,1-.21.06.52.52,0,0,1-.32-.14c-.13-.09-.28-.19-.47-.3a3.83,3.83,0,0,0-.67-.3,2.78,2.78,0,0,0-1-.14,2.93,2.93,0,0,0-.93.14,1.77,1.77,0,0,0-.67.39,1.44,1.44,0,0,0-.41.57,1.67,1.67,0,0,0-.14.71,1.34,1.34,0,0,0,.24.81,2.27,2.27,0,0,0,.63.55,4.87,4.87,0,0,0,.89.39l1,.35a9,9,0,0,1,1,.4,3.59,3.59,0,0,1,.9.56,2.65,2.65,0,0,1,.63.84,2.79,2.79,0,0,1,.24,1.22,4,4,0,0,1-.26,1.43,3.29,3.29,0,0,1-.76,1.17,3.5,3.5,0,0,1-1.23.78,4.46,4.46,0,0,1-1.65.28,5.05,5.05,0,0,1-2.06-.41,4.74,4.74,0,0,1-1.59-1.11l.46-.75a.56.56,0,0,1,.16-.14.31.31,0,0,1,.2-.07.45.45,0,0,1,.24.09l.31.21c.11.09.24.19.39.29a2.62,2.62,0,0,0,.5.28,3.32,3.32,0,0,0,.63.22,3.37,3.37,0,0,0,.81.08,3.09,3.09,0,0,0,1-.15,2,2,0,0,0,.74-.44,1.89,1.89,0,0,0,.47-.67,2.21,2.21,0,0,0,.16-.87,1.43,1.43,0,0,0-.24-.86,2,2,0,0,0-.63-.57,4.26,4.26,0,0,0-.89-.38l-1-.33a10.54,10.54,0,0,1-1-.38,3.39,3.39,0,0,1-.89-.57,2.57,2.57,0,0,1-.63-.87,3.11,3.11,0,0,1-.24-1.3,3,3,0,0,1,.24-1.19,3,3,0,0,1,.7-1,3.35,3.35,0,0,1,1.12-.71,4.15,4.15,0,0,1,1.54-.27,4.82,4.82,0,0,1,1.78.31,4.17,4.17,0,0,1,1.41.89Z"/></svg>