<svg id="Capa_1" data-name="Capa 1" xmlns="http://www.w3.org/2000/svg" viewBox="0 0 1116 1116"><defs><style>.cls-1{fill:#ededed;}.cls-2{fill:#00bcff;}.cls-3{fill:#939598;}.cls-4{font-size:51.26px;fill:#091e9d;font-family:Nexa-Bold, Nexa Bold;font-weight:700;}.cls-5{letter-spacing:-0.03em;}.cls-6{letter-spacing:0em;}.cls-7{letter-spacing:-0.03em;}.cls-8{letter-spacing:-0.03em;}</style></defs><rect class="cls-1" x="-110.65" y="-172.5" width="1331" height="1456"/><circle class="cls-1" cx="558" cy="558" r="558"/><polygon class="cls-2" points="335.17 389.38 330.22 379.22 320.13 369.12 310.34 364.3 310.34 366.84 318.68 371.04 328.3 380.66 333.18 390.21 337.98 404.7 337.98 429.01 333.18 443.5 328.3 453.05 318.68 462.66 309.27 467.4 290.18 467.4 280.7 462.66 271.16 453.05 266.21 443.5 261.48 429.01 261.48 404.7 266.21 390.21 271.16 380.66 280.7 371.04 288.83 366.98 288.83 364.4 279.33 369.12 269.17 379.22 264.29 389.38 259.21 404.42 259.21 429.28 264.29 444.32 269.17 454.49 279.33 464.58 289.56 469.67 309.82 469.67 320.13 464.58 330.22 454.49 335.17 444.32 340.25 429.28 340.25 404.42 335.17 389.38"/><polygon class="cls-2" points="310.11 470.91 289.27 470.91 278.45 465.47 268.04 455.03 263.17 444.86 257.96 429.28 258.03 404.02 263.11 388.98 268.29 378.33 278.78 368.01 290.08 362.39 290.08 367.75 281.45 372.07 272.18 381.4 267.32 390.78 262.72 404.89 262.72 428.81 267.4 443.11 272.18 452.3 281.45 461.64 290.48 466.15 308.98 466.15 317.94 461.64 327.28 452.3 332.06 442.93 336.73 428.81 336.73 404.9 331.99 390.6 327.28 381.4 317.94 372.07 309.1 367.61 309.1 362.29 321.01 368.24 331.34 378.67 336.35 388.98 341.49 404.42 341.43 429.68 336.35 444.72 331.1 455.37 320.68 465.7 310.11 470.91"/><path class="cls-2" d="M454.31,468.57h-2.4l-66.48-99.72v99.72h-2.27V365.14h2.41l66.48,99.72V365.14h2.26Z"/><polygon class="cls-2" points="455.56 469.81 451.24 469.81 386.67 372.96 386.67 469.81 381.92 469.81 381.92 363.89 386.23 363.89 450.8 460.74 450.8 363.89 455.56 363.89 455.56 469.81"/><path class="cls-2" d="M300.86,429.94H298.6v-83.3h2.26Z"/><rect class="cls-2" x="297.35" y="345.39" width="4.76" height="85.8"/><path class="cls-3" d="M329,605.56V561.31H272.74v44.25h-17V499.12h17V545.5H329V499.12h16.88V605.56Z"/><path class="cls-3" d="M451.27,605.56H372.65V499.12h78.16v16.57H389.69v28.74h58.69v15.82H389.69v28.59h61.58Z"/><path class="cls-3" d="M546.92,583.21H489.29l-10,22.35h-18.1l47.75-106.44h18.55l47.75,106.44h-18.1Zm-28.74-66.15-22.5,50.64h45Z"/><path class="cls-3" d="M607,499.12v90.63h56.11v15.81H590V499.12Z"/><path class="cls-3" d="M689,514.48H654V499.12h87v15.36H706.15v91.08H689Z"/><path class="cls-3" d="M830.24,605.56V561.31H774v44.25h-17V499.12h17V545.5h56.27V499.12h16.87V605.56Z"/><text class="cls-4" transform="translate(256.51 694.03)">SISTEM<tspan class="cls-5" x="193.3" y="0">A</tspan><tspan class="cls-6" x="231.08" y="0" xml:space="preserve"> OBR</tspan><tspan class="cls-5" x="358.81" y="0">A</tspan><tspan class="cls-6" x="396.59" y="0" xml:space="preserve"> SOCIA</tspan><tspan class="cls-7" x="574.61" y="0">L</tspan><tspan x="0" y="61.51">ONEX</tspan><tspan class="cls-8" x="148.19" y="61.51">A</tspan></text></svg>