<svg id="Capa_1" data-name="Capa 1" xmlns="http://www.w3.org/2000/svg" viewBox="0 0 1116 1116"><defs><style>.cls-1{fill:#091e9d;}.cls-2{fill:#00bcff;}.cls-3{fill:#e0e0e0;}.cls-4{font-size:49.02px;fill:#fff;font-family:Nexa-Bold, Nexa Bold;font-weight:700;}.cls-5{letter-spacing:-0.03em;}.cls-6{letter-spacing:0em;}.cls-7{letter-spacing:-0.03em;}</style></defs><rect class="cls-1" x="-67.67" y="-166.7" width="1331" height="1456"/><circle class="cls-1" cx="558" cy="558" r="558"/><polygon class="cls-2" points="397.72 400.47 392.99 390.75 383.34 381.1 373.98 376.48 373.98 378.92 381.96 382.93 391.15 392.13 395.82 401.26 400.41 415.12 400.41 438.36 395.82 452.22 391.15 461.35 381.96 470.54 372.96 475.07 354.7 475.07 345.64 470.54 336.51 461.35 331.79 452.22 327.25 438.36 327.25 415.12 331.79 401.26 336.51 392.13 345.64 382.93 353.42 379.05 353.42 376.58 344.33 381.1 334.61 390.75 329.95 400.47 325.09 414.85 325.09 438.63 329.95 453.01 334.61 462.73 344.33 472.38 354.11 477.24 373.49 477.24 383.34 472.38 392.99 462.73 397.72 453.01 402.58 438.63 402.58 414.85 397.72 400.47"/><polygon class="cls-2" points="373.76 478.43 353.83 478.43 343.49 473.23 333.54 463.24 328.87 453.52 323.89 438.63 323.96 414.47 328.82 400.09 333.77 389.9 343.8 380.03 354.61 374.66 354.61 379.78 346.35 383.91 337.49 392.84 332.84 401.8 328.45 415.3 328.45 438.17 332.92 451.85 337.49 460.64 346.35 469.56 354.99 473.88 372.68 473.88 381.25 469.56 390.18 460.64 394.75 451.68 399.22 438.17 399.22 415.31 394.69 401.63 390.18 392.84 381.25 383.91 372.79 379.65 372.79 374.56 384.18 380.25 394.06 390.23 398.85 400.09 403.77 414.85 403.71 439.01 398.85 453.39 393.83 463.57 383.86 473.45 373.76 478.43"/><path class="cls-2" d="M511.65,476.19h-2.3l-63.57-95.36v95.36h-2.16v-98.9h2.29l63.57,95.35V377.29h2.17Z"/><polygon class="cls-2" points="512.84 477.38 508.72 477.38 446.97 384.77 446.97 477.38 442.43 477.38 442.43 376.1 446.55 376.1 508.29 468.71 508.29 376.1 512.84 376.1 512.84 477.38"/><path class="cls-2" d="M364.92,439.26h-2.17V359.59h2.17Z"/><rect class="cls-2" x="361.56" y="358.4" width="4.55" height="82.05"/><path class="cls-3" d="M410,504.07v59.48c0,30-19.78,44.93-44.35,44.06-22.69-.59-42-15.13-42-44.06V504.07h16.14v59.48c0,18.46,10.76,28.5,25.89,29.08,16.28.87,28.21-9.74,28.21-29.08V504.07Z"/><path class="cls-3" d="M504.55,576.34V503.93h16.29V605.72H508.47l-57.72-71.84v71.84H434.32V503.93h12.5Z"/><path class="cls-3" d="M546.43,605.72V503.93h16.14V605.72Z"/><path class="cls-3" d="M686,555.26c0,27.48-16.72,52.64-52.06,52.64s-52.06-25.74-52.06-52.5c0-31,21.67-53.36,52.35-53.36C669,502.18,686,527.78,686,555.26ZM634,592.92c25.3,0,35.92-17.89,35.92-37.37,0-18.76-10.76-38.24-35.63-38.68-23.56,0-36.2,16.43-36.2,38.68C598.35,573.58,608.82,592.92,634,592.92Z"/><path class="cls-3" d="M775.61,576.34V503.93h16.28V605.72H779.53l-57.72-71.84v71.84H705.37V503.93h12.51Z"/><text class="cls-4" transform="translate(324.15 684.37)">SISTEM<tspan class="cls-5" x="184.84" y="0">A</tspan><tspan class="cls-6" x="220.96" y="0" xml:space="preserve"> SINDICA</tspan><tspan class="cls-7" x="440.31" y="0">L</tspan><tspan x="0" y="58.82">ONEX</tspan><tspan class="cls-5" x="141.71" y="58.82">A</tspan></text></svg>