<svg id="Capa_1" data-name="Capa 1" xmlns="http://www.w3.org/2000/svg" viewBox="0 0 1116 1116"><defs><style>.cls-1{fill:#0f0f0f;}.cls-2{fill:#00bcff;}.cls-3{fill:#d1d1d1;}.cls-4{font-size:50.59px;fill:#fff;font-family:Nexa-Bold, Nexa Bold;font-weight:700;}.cls-5{letter-spacing:-0.03em;}.cls-6{letter-spacing:-0.03em;}</style></defs><rect class="cls-1" x="-136.75" y="-171.25" width="1331" height="1456"/><circle class="cls-1" cx="558" cy="558" r="558"/><polygon class="cls-2" points="198.08 391.82 193.2 381.78 183.24 371.82 173.59 367.06 173.59 369.57 181.82 373.72 191.3 383.21 196.12 392.63 200.86 406.93 200.86 430.92 196.12 445.22 191.3 454.64 181.82 464.13 172.53 468.81 153.69 468.81 144.34 464.13 134.91 454.64 130.03 445.22 125.36 430.92 125.36 406.93 130.03 392.63 134.91 383.21 144.34 373.72 152.36 369.71 152.36 367.16 142.98 371.82 132.95 381.78 128.14 391.82 123.12 406.66 123.12 431.19 128.14 446.04 132.95 456.07 142.98 466.03 153.08 471.05 173.07 471.05 183.24 466.03 193.2 456.07 198.08 446.04 203.1 431.19 203.1 406.66 198.08 391.82"/><polygon class="cls-2" points="173.36 472.27 152.79 472.27 142.11 466.9 131.84 456.6 127.03 446.57 121.89 431.19 121.96 406.26 126.97 391.42 132.08 380.91 142.43 370.72 153.59 365.18 153.59 370.47 145.07 374.73 135.92 383.94 131.13 393.19 126.59 407.12 126.59 430.73 131.2 444.84 135.92 453.91 145.07 463.12 153.98 467.58 172.24 467.58 181.09 463.12 190.3 453.91 195.02 444.66 199.63 430.73 199.63 407.13 194.95 393.01 190.3 383.94 181.09 374.73 172.35 370.33 172.35 365.08 184.11 370.95 194.31 381.25 199.25 391.42 204.33 406.66 204.26 431.59 199.25 446.43 194.07 456.94 183.78 467.13 173.36 472.27"/><path class="cls-2" d="M315.67,470h-2.38l-65.61-98.41V470h-2.23V367.89h2.37l65.61,98.41V367.89h2.24Z"/><polygon class="cls-2" points="316.9 471.19 312.64 471.19 248.91 375.61 248.91 471.19 244.22 471.19 244.22 366.66 248.48 366.66 312.2 462.24 312.2 366.66 316.9 366.66 316.9 471.19"/><path class="cls-2" d="M164.23,431.85H162V349.63h2.24Z"/><rect class="cls-2" x="160.76" y="348.4" width="4.7" height="84.68"/><path class="cls-3" d="M212.89,528.78l-35.71,49.67h-3.61l-35.26-49.67v80.59H121.5v-105H141l34.67,49.22,34.51-49.22H229.7V609.37H212.89Z"/><path class="cls-3" d="M343.91,504.32v61.37c0,30.92-20.41,46.38-45.77,45.48-23.41-.6-43.37-15.61-43.37-45.48V504.32h16.66v61.37c0,19.06,11.1,29.42,26.71,30,16.81.9,29.11-10.06,29.11-30V504.32Z"/><path class="cls-3" d="M392.84,519.32H358.32V504.17h85.85v15.15H409.8v89.9h-17Z"/><path class="cls-3" d="M547.72,504.32v61.37c0,30.92-20.41,46.38-45.77,45.48-23.41-.6-43.37-15.61-43.37-45.48V504.32h16.65v61.37c0,19.06,11.11,29.42,26.72,30,16.8.9,29.11-10.06,29.11-30V504.32Z"/><path class="cls-3" d="M641.67,587.15H584.79l-9.9,22.07H557l47.12-105h18.31l47.12,105.05H651.73Zm-28.36-65.28-22.21,50h44.42Z"/><path class="cls-3" d="M701,504.17v89.44h55.38v15.61H684.15v-105Z"/><path class="cls-3" d="M772.24,609.22v-105H788.9V609.22Z"/><path class="cls-3" d="M839.17,519.32H804.66V504.17H890.5v15.15H856.13v89.9h-17Z"/><path class="cls-3" d="M944.38,550.54l29.86-46.37H994.5v.75l-41.72,61.22v43.08H936V566.14l-40.52-61.22v-.75h20Z"/><text class="cls-4" transform="translate(123.93 692.02)">SISTEM<tspan class="cls-5" x="190.76" y="0">A</tspan><tspan x="228.04" y="0" xml:space="preserve"> MUT</tspan><tspan class="cls-6" x="354.71" y="0">U</tspan><tspan x="391.44" y="0">ALES</tspan><tspan x="0" y="60.71">ONEX</tspan><tspan class="cls-5" x="146.25" y="60.71">A</tspan></text></svg>