<svg id="Capa_1" data-name="Capa 1" xmlns="http://www.w3.org/2000/svg" viewBox="0 0 318.98 318.98"><defs><style>.cls-1{fill:#00bcff;stroke:#00bcff;stroke-miterlimit:10;stroke-width:5px;}</style></defs><polygon class="cls-1" points="138.2 127.6 132.27 115.41 120.17 103.3 108.44 97.52 108.44 100.57 118.44 105.61 129.97 117.14 135.81 128.59 141.58 145.96 141.58 175.12 135.81 192.49 129.97 203.94 118.44 215.47 107.15 221.15 84.26 221.15 72.89 215.47 61.45 203.94 55.52 192.49 49.84 175.12 49.84 145.96 55.52 128.59 61.45 117.14 72.89 105.61 82.64 100.73 82.64 97.64 71.25 103.3 59.06 115.41 53.21 127.6 47.12 145.63 47.12 175.45 53.21 193.48 59.06 205.67 71.25 217.78 83.52 223.87 107.81 223.87 120.17 217.78 132.27 205.67 138.2 193.48 144.3 175.45 144.3 145.63 138.2 127.6"/><polygon class="cls-1" points="108.16 225.37 83.17 225.37 70.19 218.84 57.71 206.32 51.86 194.13 45.62 175.45 45.7 145.16 51.79 127.12 58 114.35 70.58 101.96 84.14 95.23 84.14 101.66 73.78 106.83 62.67 118.03 56.84 129.27 51.33 146.2 51.33 174.88 56.94 192.03 62.67 203.05 73.78 214.24 84.61 219.66 106.8 219.66 117.55 214.24 128.74 203.05 134.48 191.81 140.08 174.88 140.08 146.21 134.4 129.06 128.74 118.03 117.55 106.83 106.94 101.49 106.94 95.11 121.22 102.25 133.62 114.75 139.62 127.12 145.79 145.63 145.71 175.93 139.62 193.96 133.33 206.73 120.83 219.12 108.16 225.37"/><path class="cls-1" d="M259.48,222.55H256.6L176.88,103V222.55h-2.72v-124H177l79.72,119.58V98.53h2.72Z"/><polygon class="cls-1" points="260.98 224.05 255.8 224.05 178.37 107.91 178.37 224.05 172.67 224.05 172.67 97.03 177.84 97.03 255.27 213.17 255.27 97.03 260.98 97.03 260.98 224.05"/><path class="cls-1" d="M97.06,176.24H94.35V76.34h2.71Z"/><rect class="cls-1" x="92.85" y="74.84" width="5.71" height="102.89"/></svg>